M48
; DRILL file KiCad 10.0.6 date 2026-09-20T20:51:02
; FORMAT={-:-/ absolute / metric / decimal}
; #@! TF.CreationDate,2026-09-20T20:51:02+05:30
; #@! TF.GenerationSoftware,Kicad,Pcbnew,10.0.6
; #@! TF.FileFunction,NonPlated,1,2,NPTH
FMAT,2
METRIC
; #@! TA.AperFunction,NonPlated,NPTH,ComponentDrill
T1C1.700
; #@! TA.AperFunction,NonPlated,NPTH,ComponentDrill
T2C4.000
%
G90
G05
T1
X66.03Y-101.54
X66.33Y-60.44
X66.43Y-80.84
X76.19Y-101.54
X76.49Y-60.44
X76.59Y-80.84
X90.06Y-80.64
X90.07Y-101.4
X90.17Y-60.4
X100.22Y-80.64
X100.23Y-101.4
X100.33Y-60.4
X114.3Y-60.5
X124.46Y-60.5
T2
X71.11Y-101.54
X71.41Y-60.44
X71.51Y-80.84
X95.14Y-80.64
X95.15Y-101.4
X95.25Y-60.4
X119.38Y-60.5
M30
