%TF.GenerationSoftware,KiCad,Pcbnew,10.0.6*%
%TF.CreationDate,2026-09-20T20:50:56+05:30*%
%TF.ProjectId,PCB,5043422e-6b69-4636-9164-5f7063625858,rev?*%
%TF.SameCoordinates,Original*%
%TF.FileFunction,Legend,Top*%
%TF.FilePolarity,Positive*%
%FSLAX46Y46*%
G04 Gerber Fmt 4.6, Leading zero omitted, Abs format (unit mm)*
G04 Created by KiCad (PCBNEW 10.0.6) date 2026-09-20 20:50:56*
%MOMM*%
%LPD*%
G01*
G04 APERTURE LIST*
%ADD10C,0.150000*%
%ADD11C,0.101600*%
%ADD12C,0.120000*%
%ADD13C,0.127000*%
%ADD14C,0.254000*%
%ADD15C,0.025400*%
G04 APERTURE END LIST*
D10*
X113296667Y-73207200D02*
X113439524Y-73254819D01*
X113439524Y-73254819D02*
X113677619Y-73254819D01*
X113677619Y-73254819D02*
X113772857Y-73207200D01*
X113772857Y-73207200D02*
X113820476Y-73159580D01*
X113820476Y-73159580D02*
X113868095Y-73064342D01*
X113868095Y-73064342D02*
X113868095Y-72969104D01*
X113868095Y-72969104D02*
X113820476Y-72873866D01*
X113820476Y-72873866D02*
X113772857Y-72826247D01*
X113772857Y-72826247D02*
X113677619Y-72778628D01*
X113677619Y-72778628D02*
X113487143Y-72731009D01*
X113487143Y-72731009D02*
X113391905Y-72683390D01*
X113391905Y-72683390D02*
X113344286Y-72635771D01*
X113344286Y-72635771D02*
X113296667Y-72540533D01*
X113296667Y-72540533D02*
X113296667Y-72445295D01*
X113296667Y-72445295D02*
X113344286Y-72350057D01*
X113344286Y-72350057D02*
X113391905Y-72302438D01*
X113391905Y-72302438D02*
X113487143Y-72254819D01*
X113487143Y-72254819D02*
X113725238Y-72254819D01*
X113725238Y-72254819D02*
X113868095Y-72302438D01*
X114201429Y-72254819D02*
X114439524Y-73254819D01*
X114439524Y-73254819D02*
X114630000Y-72540533D01*
X114630000Y-72540533D02*
X114820476Y-73254819D01*
X114820476Y-73254819D02*
X115058572Y-72254819D01*
X115344286Y-72254819D02*
X115963333Y-72254819D01*
X115963333Y-72254819D02*
X115630000Y-72635771D01*
X115630000Y-72635771D02*
X115772857Y-72635771D01*
X115772857Y-72635771D02*
X115868095Y-72683390D01*
X115868095Y-72683390D02*
X115915714Y-72731009D01*
X115915714Y-72731009D02*
X115963333Y-72826247D01*
X115963333Y-72826247D02*
X115963333Y-73064342D01*
X115963333Y-73064342D02*
X115915714Y-73159580D01*
X115915714Y-73159580D02*
X115868095Y-73207200D01*
X115868095Y-73207200D02*
X115772857Y-73254819D01*
X115772857Y-73254819D02*
X115487143Y-73254819D01*
X115487143Y-73254819D02*
X115391905Y-73207200D01*
X115391905Y-73207200D02*
X115344286Y-73159580D01*
X140398095Y-50354819D02*
X140398095Y-51164342D01*
X140398095Y-51164342D02*
X140445714Y-51259580D01*
X140445714Y-51259580D02*
X140493333Y-51307200D01*
X140493333Y-51307200D02*
X140588571Y-51354819D01*
X140588571Y-51354819D02*
X140779047Y-51354819D01*
X140779047Y-51354819D02*
X140874285Y-51307200D01*
X140874285Y-51307200D02*
X140921904Y-51259580D01*
X140921904Y-51259580D02*
X140969523Y-51164342D01*
X140969523Y-51164342D02*
X140969523Y-50354819D01*
X141874285Y-50688152D02*
X141874285Y-51354819D01*
X141636190Y-50307200D02*
X141398095Y-51021485D01*
X141398095Y-51021485D02*
X142017142Y-51021485D01*
X149537200Y-81903332D02*
X149584819Y-81760475D01*
X149584819Y-81760475D02*
X149584819Y-81522380D01*
X149584819Y-81522380D02*
X149537200Y-81427142D01*
X149537200Y-81427142D02*
X149489580Y-81379523D01*
X149489580Y-81379523D02*
X149394342Y-81331904D01*
X149394342Y-81331904D02*
X149299104Y-81331904D01*
X149299104Y-81331904D02*
X149203866Y-81379523D01*
X149203866Y-81379523D02*
X149156247Y-81427142D01*
X149156247Y-81427142D02*
X149108628Y-81522380D01*
X149108628Y-81522380D02*
X149061009Y-81712856D01*
X149061009Y-81712856D02*
X149013390Y-81808094D01*
X149013390Y-81808094D02*
X148965771Y-81855713D01*
X148965771Y-81855713D02*
X148870533Y-81903332D01*
X148870533Y-81903332D02*
X148775295Y-81903332D01*
X148775295Y-81903332D02*
X148680057Y-81855713D01*
X148680057Y-81855713D02*
X148632438Y-81808094D01*
X148632438Y-81808094D02*
X148584819Y-81712856D01*
X148584819Y-81712856D02*
X148584819Y-81474761D01*
X148584819Y-81474761D02*
X148632438Y-81331904D01*
X148584819Y-80998570D02*
X149584819Y-80760475D01*
X149584819Y-80760475D02*
X148870533Y-80569999D01*
X148870533Y-80569999D02*
X149584819Y-80379523D01*
X149584819Y-80379523D02*
X148584819Y-80141428D01*
X148584819Y-79855713D02*
X148584819Y-79189047D01*
X148584819Y-79189047D02*
X149584819Y-79617618D01*
X149537200Y-65543332D02*
X149584819Y-65400475D01*
X149584819Y-65400475D02*
X149584819Y-65162380D01*
X149584819Y-65162380D02*
X149537200Y-65067142D01*
X149537200Y-65067142D02*
X149489580Y-65019523D01*
X149489580Y-65019523D02*
X149394342Y-64971904D01*
X149394342Y-64971904D02*
X149299104Y-64971904D01*
X149299104Y-64971904D02*
X149203866Y-65019523D01*
X149203866Y-65019523D02*
X149156247Y-65067142D01*
X149156247Y-65067142D02*
X149108628Y-65162380D01*
X149108628Y-65162380D02*
X149061009Y-65352856D01*
X149061009Y-65352856D02*
X149013390Y-65448094D01*
X149013390Y-65448094D02*
X148965771Y-65495713D01*
X148965771Y-65495713D02*
X148870533Y-65543332D01*
X148870533Y-65543332D02*
X148775295Y-65543332D01*
X148775295Y-65543332D02*
X148680057Y-65495713D01*
X148680057Y-65495713D02*
X148632438Y-65448094D01*
X148632438Y-65448094D02*
X148584819Y-65352856D01*
X148584819Y-65352856D02*
X148584819Y-65114761D01*
X148584819Y-65114761D02*
X148632438Y-64971904D01*
X148584819Y-64638570D02*
X149584819Y-64400475D01*
X149584819Y-64400475D02*
X148870533Y-64209999D01*
X148870533Y-64209999D02*
X149584819Y-64019523D01*
X149584819Y-64019523D02*
X148584819Y-63781428D01*
X149013390Y-63257618D02*
X148965771Y-63352856D01*
X148965771Y-63352856D02*
X148918152Y-63400475D01*
X148918152Y-63400475D02*
X148822914Y-63448094D01*
X148822914Y-63448094D02*
X148775295Y-63448094D01*
X148775295Y-63448094D02*
X148680057Y-63400475D01*
X148680057Y-63400475D02*
X148632438Y-63352856D01*
X148632438Y-63352856D02*
X148584819Y-63257618D01*
X148584819Y-63257618D02*
X148584819Y-63067142D01*
X148584819Y-63067142D02*
X148632438Y-62971904D01*
X148632438Y-62971904D02*
X148680057Y-62924285D01*
X148680057Y-62924285D02*
X148775295Y-62876666D01*
X148775295Y-62876666D02*
X148822914Y-62876666D01*
X148822914Y-62876666D02*
X148918152Y-62924285D01*
X148918152Y-62924285D02*
X148965771Y-62971904D01*
X148965771Y-62971904D02*
X149013390Y-63067142D01*
X149013390Y-63067142D02*
X149013390Y-63257618D01*
X149013390Y-63257618D02*
X149061009Y-63352856D01*
X149061009Y-63352856D02*
X149108628Y-63400475D01*
X149108628Y-63400475D02*
X149203866Y-63448094D01*
X149203866Y-63448094D02*
X149394342Y-63448094D01*
X149394342Y-63448094D02*
X149489580Y-63400475D01*
X149489580Y-63400475D02*
X149537200Y-63352856D01*
X149537200Y-63352856D02*
X149584819Y-63257618D01*
X149584819Y-63257618D02*
X149584819Y-63067142D01*
X149584819Y-63067142D02*
X149537200Y-62971904D01*
X149537200Y-62971904D02*
X149489580Y-62924285D01*
X149489580Y-62924285D02*
X149394342Y-62876666D01*
X149394342Y-62876666D02*
X149203866Y-62876666D01*
X149203866Y-62876666D02*
X149108628Y-62924285D01*
X149108628Y-62924285D02*
X149061009Y-62971904D01*
X149061009Y-62971904D02*
X149013390Y-63067142D01*
X112496667Y-94207200D02*
X112639524Y-94254819D01*
X112639524Y-94254819D02*
X112877619Y-94254819D01*
X112877619Y-94254819D02*
X112972857Y-94207200D01*
X112972857Y-94207200D02*
X113020476Y-94159580D01*
X113020476Y-94159580D02*
X113068095Y-94064342D01*
X113068095Y-94064342D02*
X113068095Y-93969104D01*
X113068095Y-93969104D02*
X113020476Y-93873866D01*
X113020476Y-93873866D02*
X112972857Y-93826247D01*
X112972857Y-93826247D02*
X112877619Y-93778628D01*
X112877619Y-93778628D02*
X112687143Y-93731009D01*
X112687143Y-93731009D02*
X112591905Y-93683390D01*
X112591905Y-93683390D02*
X112544286Y-93635771D01*
X112544286Y-93635771D02*
X112496667Y-93540533D01*
X112496667Y-93540533D02*
X112496667Y-93445295D01*
X112496667Y-93445295D02*
X112544286Y-93350057D01*
X112544286Y-93350057D02*
X112591905Y-93302438D01*
X112591905Y-93302438D02*
X112687143Y-93254819D01*
X112687143Y-93254819D02*
X112925238Y-93254819D01*
X112925238Y-93254819D02*
X113068095Y-93302438D01*
X113401429Y-93254819D02*
X113639524Y-94254819D01*
X113639524Y-94254819D02*
X113830000Y-93540533D01*
X113830000Y-93540533D02*
X114020476Y-94254819D01*
X114020476Y-94254819D02*
X114258572Y-93254819D01*
X115068095Y-93588152D02*
X115068095Y-94254819D01*
X114830000Y-93207200D02*
X114591905Y-93921485D01*
X114591905Y-93921485D02*
X115210952Y-93921485D01*
D11*
X141557666Y-101956985D02*
X141557666Y-102676652D01*
X141557666Y-102676652D02*
X141600000Y-102761318D01*
X141600000Y-102761318D02*
X141642333Y-102803652D01*
X141642333Y-102803652D02*
X141727000Y-102845985D01*
X141727000Y-102845985D02*
X141896333Y-102845985D01*
X141896333Y-102845985D02*
X141981000Y-102803652D01*
X141981000Y-102803652D02*
X142023333Y-102761318D01*
X142023333Y-102761318D02*
X142065666Y-102676652D01*
X142065666Y-102676652D02*
X142065666Y-101956985D01*
X142912333Y-101956985D02*
X142488999Y-101956985D01*
X142488999Y-101956985D02*
X142446666Y-102380318D01*
X142446666Y-102380318D02*
X142488999Y-102337985D01*
X142488999Y-102337985D02*
X142573666Y-102295652D01*
X142573666Y-102295652D02*
X142785333Y-102295652D01*
X142785333Y-102295652D02*
X142869999Y-102337985D01*
X142869999Y-102337985D02*
X142912333Y-102380318D01*
X142912333Y-102380318D02*
X142954666Y-102464985D01*
X142954666Y-102464985D02*
X142954666Y-102676652D01*
X142954666Y-102676652D02*
X142912333Y-102761318D01*
X142912333Y-102761318D02*
X142869999Y-102803652D01*
X142869999Y-102803652D02*
X142785333Y-102845985D01*
X142785333Y-102845985D02*
X142573666Y-102845985D01*
X142573666Y-102845985D02*
X142488999Y-102803652D01*
X142488999Y-102803652D02*
X142446666Y-102761318D01*
D10*
X143758808Y-105025180D02*
X143092142Y-104025180D01*
X143092142Y-105025180D02*
X143758808Y-104025180D01*
X142711189Y-104025180D02*
X142711189Y-105025180D01*
X142282618Y-104310895D02*
X141806428Y-104310895D01*
X142377856Y-104025180D02*
X142044523Y-105025180D01*
X142044523Y-105025180D02*
X141711190Y-104025180D01*
X141187380Y-105025180D02*
X140996904Y-105025180D01*
X140996904Y-105025180D02*
X140901666Y-104977561D01*
X140901666Y-104977561D02*
X140806428Y-104882323D01*
X140806428Y-104882323D02*
X140758809Y-104691847D01*
X140758809Y-104691847D02*
X140758809Y-104358514D01*
X140758809Y-104358514D02*
X140806428Y-104168038D01*
X140806428Y-104168038D02*
X140901666Y-104072800D01*
X140901666Y-104072800D02*
X140996904Y-104025180D01*
X140996904Y-104025180D02*
X141187380Y-104025180D01*
X141187380Y-104025180D02*
X141282618Y-104072800D01*
X141282618Y-104072800D02*
X141377856Y-104168038D01*
X141377856Y-104168038D02*
X141425475Y-104358514D01*
X141425475Y-104358514D02*
X141425475Y-104691847D01*
X141425475Y-104691847D02*
X141377856Y-104882323D01*
X141377856Y-104882323D02*
X141282618Y-104977561D01*
X141282618Y-104977561D02*
X141187380Y-105025180D01*
X146996904Y-106072800D02*
X146854047Y-106025180D01*
X146854047Y-106025180D02*
X146615952Y-106025180D01*
X146615952Y-106025180D02*
X146520714Y-106072800D01*
X146520714Y-106072800D02*
X146473095Y-106120419D01*
X146473095Y-106120419D02*
X146425476Y-106215657D01*
X146425476Y-106215657D02*
X146425476Y-106310895D01*
X146425476Y-106310895D02*
X146473095Y-106406133D01*
X146473095Y-106406133D02*
X146520714Y-106453752D01*
X146520714Y-106453752D02*
X146615952Y-106501371D01*
X146615952Y-106501371D02*
X146806428Y-106548990D01*
X146806428Y-106548990D02*
X146901666Y-106596609D01*
X146901666Y-106596609D02*
X146949285Y-106644228D01*
X146949285Y-106644228D02*
X146996904Y-106739466D01*
X146996904Y-106739466D02*
X146996904Y-106834704D01*
X146996904Y-106834704D02*
X146949285Y-106929942D01*
X146949285Y-106929942D02*
X146901666Y-106977561D01*
X146901666Y-106977561D02*
X146806428Y-107025180D01*
X146806428Y-107025180D02*
X146568333Y-107025180D01*
X146568333Y-107025180D02*
X146425476Y-106977561D01*
X145615952Y-106072800D02*
X145711190Y-106025180D01*
X145711190Y-106025180D02*
X145901666Y-106025180D01*
X145901666Y-106025180D02*
X145996904Y-106072800D01*
X145996904Y-106072800D02*
X146044523Y-106168038D01*
X146044523Y-106168038D02*
X146044523Y-106548990D01*
X146044523Y-106548990D02*
X145996904Y-106644228D01*
X145996904Y-106644228D02*
X145901666Y-106691847D01*
X145901666Y-106691847D02*
X145711190Y-106691847D01*
X145711190Y-106691847D02*
X145615952Y-106644228D01*
X145615952Y-106644228D02*
X145568333Y-106548990D01*
X145568333Y-106548990D02*
X145568333Y-106453752D01*
X145568333Y-106453752D02*
X146044523Y-106358514D01*
X144758809Y-106072800D02*
X144854047Y-106025180D01*
X144854047Y-106025180D02*
X145044523Y-106025180D01*
X145044523Y-106025180D02*
X145139761Y-106072800D01*
X145139761Y-106072800D02*
X145187380Y-106168038D01*
X145187380Y-106168038D02*
X145187380Y-106548990D01*
X145187380Y-106548990D02*
X145139761Y-106644228D01*
X145139761Y-106644228D02*
X145044523Y-106691847D01*
X145044523Y-106691847D02*
X144854047Y-106691847D01*
X144854047Y-106691847D02*
X144758809Y-106644228D01*
X144758809Y-106644228D02*
X144711190Y-106548990D01*
X144711190Y-106548990D02*
X144711190Y-106453752D01*
X144711190Y-106453752D02*
X145187380Y-106358514D01*
X143901666Y-106072800D02*
X143996904Y-106025180D01*
X143996904Y-106025180D02*
X144187380Y-106025180D01*
X144187380Y-106025180D02*
X144282618Y-106072800D01*
X144282618Y-106072800D02*
X144330237Y-106168038D01*
X144330237Y-106168038D02*
X144330237Y-106548990D01*
X144330237Y-106548990D02*
X144282618Y-106644228D01*
X144282618Y-106644228D02*
X144187380Y-106691847D01*
X144187380Y-106691847D02*
X143996904Y-106691847D01*
X143996904Y-106691847D02*
X143901666Y-106644228D01*
X143901666Y-106644228D02*
X143854047Y-106548990D01*
X143854047Y-106548990D02*
X143854047Y-106453752D01*
X143854047Y-106453752D02*
X144330237Y-106358514D01*
X142996904Y-106025180D02*
X142996904Y-107025180D01*
X142996904Y-106072800D02*
X143092142Y-106025180D01*
X143092142Y-106025180D02*
X143282618Y-106025180D01*
X143282618Y-106025180D02*
X143377856Y-106072800D01*
X143377856Y-106072800D02*
X143425475Y-106120419D01*
X143425475Y-106120419D02*
X143473094Y-106215657D01*
X143473094Y-106215657D02*
X143473094Y-106501371D01*
X143473094Y-106501371D02*
X143425475Y-106596609D01*
X143425475Y-106596609D02*
X143377856Y-106644228D01*
X143377856Y-106644228D02*
X143282618Y-106691847D01*
X143282618Y-106691847D02*
X143092142Y-106691847D01*
X143092142Y-106691847D02*
X142996904Y-106644228D01*
X141806427Y-106072800D02*
X141663570Y-106025180D01*
X141663570Y-106025180D02*
X141425475Y-106025180D01*
X141425475Y-106025180D02*
X141330237Y-106072800D01*
X141330237Y-106072800D02*
X141282618Y-106120419D01*
X141282618Y-106120419D02*
X141234999Y-106215657D01*
X141234999Y-106215657D02*
X141234999Y-106310895D01*
X141234999Y-106310895D02*
X141282618Y-106406133D01*
X141282618Y-106406133D02*
X141330237Y-106453752D01*
X141330237Y-106453752D02*
X141425475Y-106501371D01*
X141425475Y-106501371D02*
X141615951Y-106548990D01*
X141615951Y-106548990D02*
X141711189Y-106596609D01*
X141711189Y-106596609D02*
X141758808Y-106644228D01*
X141758808Y-106644228D02*
X141806427Y-106739466D01*
X141806427Y-106739466D02*
X141806427Y-106834704D01*
X141806427Y-106834704D02*
X141758808Y-106929942D01*
X141758808Y-106929942D02*
X141711189Y-106977561D01*
X141711189Y-106977561D02*
X141615951Y-107025180D01*
X141615951Y-107025180D02*
X141377856Y-107025180D01*
X141377856Y-107025180D02*
X141234999Y-106977561D01*
X140949284Y-106691847D02*
X140568332Y-106691847D01*
X140806427Y-107025180D02*
X140806427Y-106168038D01*
X140806427Y-106168038D02*
X140758808Y-106072800D01*
X140758808Y-106072800D02*
X140663570Y-106025180D01*
X140663570Y-106025180D02*
X140568332Y-106025180D01*
X139806427Y-106691847D02*
X139806427Y-106025180D01*
X140234998Y-106691847D02*
X140234998Y-106168038D01*
X140234998Y-106168038D02*
X140187379Y-106072800D01*
X140187379Y-106072800D02*
X140092141Y-106025180D01*
X140092141Y-106025180D02*
X139949284Y-106025180D01*
X139949284Y-106025180D02*
X139854046Y-106072800D01*
X139854046Y-106072800D02*
X139806427Y-106120419D01*
X138901665Y-106025180D02*
X138901665Y-107025180D01*
X138901665Y-106072800D02*
X138996903Y-106025180D01*
X138996903Y-106025180D02*
X139187379Y-106025180D01*
X139187379Y-106025180D02*
X139282617Y-106072800D01*
X139282617Y-106072800D02*
X139330236Y-106120419D01*
X139330236Y-106120419D02*
X139377855Y-106215657D01*
X139377855Y-106215657D02*
X139377855Y-106501371D01*
X139377855Y-106501371D02*
X139330236Y-106596609D01*
X139330236Y-106596609D02*
X139282617Y-106644228D01*
X139282617Y-106644228D02*
X139187379Y-106691847D01*
X139187379Y-106691847D02*
X138996903Y-106691847D01*
X138996903Y-106691847D02*
X138901665Y-106644228D01*
X138425474Y-106025180D02*
X138425474Y-106691847D01*
X138425474Y-107025180D02*
X138473093Y-106977561D01*
X138473093Y-106977561D02*
X138425474Y-106929942D01*
X138425474Y-106929942D02*
X138377855Y-106977561D01*
X138377855Y-106977561D02*
X138425474Y-107025180D01*
X138425474Y-107025180D02*
X138425474Y-106929942D01*
X137806427Y-106025180D02*
X137901665Y-106072800D01*
X137901665Y-106072800D02*
X137949284Y-106120419D01*
X137949284Y-106120419D02*
X137996903Y-106215657D01*
X137996903Y-106215657D02*
X137996903Y-106501371D01*
X137996903Y-106501371D02*
X137949284Y-106596609D01*
X137949284Y-106596609D02*
X137901665Y-106644228D01*
X137901665Y-106644228D02*
X137806427Y-106691847D01*
X137806427Y-106691847D02*
X137663570Y-106691847D01*
X137663570Y-106691847D02*
X137568332Y-106644228D01*
X137568332Y-106644228D02*
X137520713Y-106596609D01*
X137520713Y-106596609D02*
X137473094Y-106501371D01*
X137473094Y-106501371D02*
X137473094Y-106215657D01*
X137473094Y-106215657D02*
X137520713Y-106120419D01*
X137520713Y-106120419D02*
X137568332Y-106072800D01*
X137568332Y-106072800D02*
X137663570Y-106025180D01*
X137663570Y-106025180D02*
X137806427Y-106025180D01*
X118046667Y-53033200D02*
X118189524Y-53080819D01*
X118189524Y-53080819D02*
X118427619Y-53080819D01*
X118427619Y-53080819D02*
X118522857Y-53033200D01*
X118522857Y-53033200D02*
X118570476Y-52985580D01*
X118570476Y-52985580D02*
X118618095Y-52890342D01*
X118618095Y-52890342D02*
X118618095Y-52795104D01*
X118618095Y-52795104D02*
X118570476Y-52699866D01*
X118570476Y-52699866D02*
X118522857Y-52652247D01*
X118522857Y-52652247D02*
X118427619Y-52604628D01*
X118427619Y-52604628D02*
X118237143Y-52557009D01*
X118237143Y-52557009D02*
X118141905Y-52509390D01*
X118141905Y-52509390D02*
X118094286Y-52461771D01*
X118094286Y-52461771D02*
X118046667Y-52366533D01*
X118046667Y-52366533D02*
X118046667Y-52271295D01*
X118046667Y-52271295D02*
X118094286Y-52176057D01*
X118094286Y-52176057D02*
X118141905Y-52128438D01*
X118141905Y-52128438D02*
X118237143Y-52080819D01*
X118237143Y-52080819D02*
X118475238Y-52080819D01*
X118475238Y-52080819D02*
X118618095Y-52128438D01*
X118951429Y-52080819D02*
X119189524Y-53080819D01*
X119189524Y-53080819D02*
X119380000Y-52366533D01*
X119380000Y-52366533D02*
X119570476Y-53080819D01*
X119570476Y-53080819D02*
X119808572Y-52080819D01*
X120618095Y-52080819D02*
X120427619Y-52080819D01*
X120427619Y-52080819D02*
X120332381Y-52128438D01*
X120332381Y-52128438D02*
X120284762Y-52176057D01*
X120284762Y-52176057D02*
X120189524Y-52318914D01*
X120189524Y-52318914D02*
X120141905Y-52509390D01*
X120141905Y-52509390D02*
X120141905Y-52890342D01*
X120141905Y-52890342D02*
X120189524Y-52985580D01*
X120189524Y-52985580D02*
X120237143Y-53033200D01*
X120237143Y-53033200D02*
X120332381Y-53080819D01*
X120332381Y-53080819D02*
X120522857Y-53080819D01*
X120522857Y-53080819D02*
X120618095Y-53033200D01*
X120618095Y-53033200D02*
X120665714Y-52985580D01*
X120665714Y-52985580D02*
X120713333Y-52890342D01*
X120713333Y-52890342D02*
X120713333Y-52652247D01*
X120713333Y-52652247D02*
X120665714Y-52557009D01*
X120665714Y-52557009D02*
X120618095Y-52509390D01*
X120618095Y-52509390D02*
X120522857Y-52461771D01*
X120522857Y-52461771D02*
X120332381Y-52461771D01*
X120332381Y-52461771D02*
X120237143Y-52509390D01*
X120237143Y-52509390D02*
X120189524Y-52557009D01*
X120189524Y-52557009D02*
X120141905Y-52652247D01*
X93816667Y-93933200D02*
X93959524Y-93980819D01*
X93959524Y-93980819D02*
X94197619Y-93980819D01*
X94197619Y-93980819D02*
X94292857Y-93933200D01*
X94292857Y-93933200D02*
X94340476Y-93885580D01*
X94340476Y-93885580D02*
X94388095Y-93790342D01*
X94388095Y-93790342D02*
X94388095Y-93695104D01*
X94388095Y-93695104D02*
X94340476Y-93599866D01*
X94340476Y-93599866D02*
X94292857Y-93552247D01*
X94292857Y-93552247D02*
X94197619Y-93504628D01*
X94197619Y-93504628D02*
X94007143Y-93457009D01*
X94007143Y-93457009D02*
X93911905Y-93409390D01*
X93911905Y-93409390D02*
X93864286Y-93361771D01*
X93864286Y-93361771D02*
X93816667Y-93266533D01*
X93816667Y-93266533D02*
X93816667Y-93171295D01*
X93816667Y-93171295D02*
X93864286Y-93076057D01*
X93864286Y-93076057D02*
X93911905Y-93028438D01*
X93911905Y-93028438D02*
X94007143Y-92980819D01*
X94007143Y-92980819D02*
X94245238Y-92980819D01*
X94245238Y-92980819D02*
X94388095Y-93028438D01*
X94721429Y-92980819D02*
X94959524Y-93980819D01*
X94959524Y-93980819D02*
X95150000Y-93266533D01*
X95150000Y-93266533D02*
X95340476Y-93980819D01*
X95340476Y-93980819D02*
X95578572Y-92980819D01*
X96435714Y-92980819D02*
X95959524Y-92980819D01*
X95959524Y-92980819D02*
X95911905Y-93457009D01*
X95911905Y-93457009D02*
X95959524Y-93409390D01*
X95959524Y-93409390D02*
X96054762Y-93361771D01*
X96054762Y-93361771D02*
X96292857Y-93361771D01*
X96292857Y-93361771D02*
X96388095Y-93409390D01*
X96388095Y-93409390D02*
X96435714Y-93457009D01*
X96435714Y-93457009D02*
X96483333Y-93552247D01*
X96483333Y-93552247D02*
X96483333Y-93790342D01*
X96483333Y-93790342D02*
X96435714Y-93885580D01*
X96435714Y-93885580D02*
X96388095Y-93933200D01*
X96388095Y-93933200D02*
X96292857Y-93980819D01*
X96292857Y-93980819D02*
X96054762Y-93980819D01*
X96054762Y-93980819D02*
X95959524Y-93933200D01*
X95959524Y-93933200D02*
X95911905Y-93885580D01*
X93916667Y-52933200D02*
X94059524Y-52980819D01*
X94059524Y-52980819D02*
X94297619Y-52980819D01*
X94297619Y-52980819D02*
X94392857Y-52933200D01*
X94392857Y-52933200D02*
X94440476Y-52885580D01*
X94440476Y-52885580D02*
X94488095Y-52790342D01*
X94488095Y-52790342D02*
X94488095Y-52695104D01*
X94488095Y-52695104D02*
X94440476Y-52599866D01*
X94440476Y-52599866D02*
X94392857Y-52552247D01*
X94392857Y-52552247D02*
X94297619Y-52504628D01*
X94297619Y-52504628D02*
X94107143Y-52457009D01*
X94107143Y-52457009D02*
X94011905Y-52409390D01*
X94011905Y-52409390D02*
X93964286Y-52361771D01*
X93964286Y-52361771D02*
X93916667Y-52266533D01*
X93916667Y-52266533D02*
X93916667Y-52171295D01*
X93916667Y-52171295D02*
X93964286Y-52076057D01*
X93964286Y-52076057D02*
X94011905Y-52028438D01*
X94011905Y-52028438D02*
X94107143Y-51980819D01*
X94107143Y-51980819D02*
X94345238Y-51980819D01*
X94345238Y-51980819D02*
X94488095Y-52028438D01*
X94821429Y-51980819D02*
X95059524Y-52980819D01*
X95059524Y-52980819D02*
X95250000Y-52266533D01*
X95250000Y-52266533D02*
X95440476Y-52980819D01*
X95440476Y-52980819D02*
X95678572Y-51980819D01*
X96583333Y-52980819D02*
X96011905Y-52980819D01*
X96297619Y-52980819D02*
X96297619Y-51980819D01*
X96297619Y-51980819D02*
X96202381Y-52123676D01*
X96202381Y-52123676D02*
X96107143Y-52218914D01*
X96107143Y-52218914D02*
X96011905Y-52266533D01*
X93806667Y-73173200D02*
X93949524Y-73220819D01*
X93949524Y-73220819D02*
X94187619Y-73220819D01*
X94187619Y-73220819D02*
X94282857Y-73173200D01*
X94282857Y-73173200D02*
X94330476Y-73125580D01*
X94330476Y-73125580D02*
X94378095Y-73030342D01*
X94378095Y-73030342D02*
X94378095Y-72935104D01*
X94378095Y-72935104D02*
X94330476Y-72839866D01*
X94330476Y-72839866D02*
X94282857Y-72792247D01*
X94282857Y-72792247D02*
X94187619Y-72744628D01*
X94187619Y-72744628D02*
X93997143Y-72697009D01*
X93997143Y-72697009D02*
X93901905Y-72649390D01*
X93901905Y-72649390D02*
X93854286Y-72601771D01*
X93854286Y-72601771D02*
X93806667Y-72506533D01*
X93806667Y-72506533D02*
X93806667Y-72411295D01*
X93806667Y-72411295D02*
X93854286Y-72316057D01*
X93854286Y-72316057D02*
X93901905Y-72268438D01*
X93901905Y-72268438D02*
X93997143Y-72220819D01*
X93997143Y-72220819D02*
X94235238Y-72220819D01*
X94235238Y-72220819D02*
X94378095Y-72268438D01*
X94711429Y-72220819D02*
X94949524Y-73220819D01*
X94949524Y-73220819D02*
X95140000Y-72506533D01*
X95140000Y-72506533D02*
X95330476Y-73220819D01*
X95330476Y-73220819D02*
X95568572Y-72220819D01*
X95901905Y-72316057D02*
X95949524Y-72268438D01*
X95949524Y-72268438D02*
X96044762Y-72220819D01*
X96044762Y-72220819D02*
X96282857Y-72220819D01*
X96282857Y-72220819D02*
X96378095Y-72268438D01*
X96378095Y-72268438D02*
X96425714Y-72316057D01*
X96425714Y-72316057D02*
X96473333Y-72411295D01*
X96473333Y-72411295D02*
X96473333Y-72506533D01*
X96473333Y-72506533D02*
X96425714Y-72649390D01*
X96425714Y-72649390D02*
X95854286Y-73220819D01*
X95854286Y-73220819D02*
X96473333Y-73220819D01*
X107704819Y-105238094D02*
X106704819Y-105238094D01*
X106704819Y-105238094D02*
X106704819Y-104999999D01*
X106704819Y-104999999D02*
X106752438Y-104857142D01*
X106752438Y-104857142D02*
X106847676Y-104761904D01*
X106847676Y-104761904D02*
X106942914Y-104714285D01*
X106942914Y-104714285D02*
X107133390Y-104666666D01*
X107133390Y-104666666D02*
X107276247Y-104666666D01*
X107276247Y-104666666D02*
X107466723Y-104714285D01*
X107466723Y-104714285D02*
X107561961Y-104761904D01*
X107561961Y-104761904D02*
X107657200Y-104857142D01*
X107657200Y-104857142D02*
X107704819Y-104999999D01*
X107704819Y-104999999D02*
X107704819Y-105238094D01*
X106704819Y-103809523D02*
X106704819Y-103999999D01*
X106704819Y-103999999D02*
X106752438Y-104095237D01*
X106752438Y-104095237D02*
X106800057Y-104142856D01*
X106800057Y-104142856D02*
X106942914Y-104238094D01*
X106942914Y-104238094D02*
X107133390Y-104285713D01*
X107133390Y-104285713D02*
X107514342Y-104285713D01*
X107514342Y-104285713D02*
X107609580Y-104238094D01*
X107609580Y-104238094D02*
X107657200Y-104190475D01*
X107657200Y-104190475D02*
X107704819Y-104095237D01*
X107704819Y-104095237D02*
X107704819Y-103904761D01*
X107704819Y-103904761D02*
X107657200Y-103809523D01*
X107657200Y-103809523D02*
X107609580Y-103761904D01*
X107609580Y-103761904D02*
X107514342Y-103714285D01*
X107514342Y-103714285D02*
X107276247Y-103714285D01*
X107276247Y-103714285D02*
X107181009Y-103761904D01*
X107181009Y-103761904D02*
X107133390Y-103809523D01*
X107133390Y-103809523D02*
X107085771Y-103904761D01*
X107085771Y-103904761D02*
X107085771Y-104095237D01*
X107085771Y-104095237D02*
X107133390Y-104190475D01*
X107133390Y-104190475D02*
X107181009Y-104238094D01*
X107181009Y-104238094D02*
X107276247Y-104285713D01*
X107384819Y-100951904D02*
X106384819Y-100951904D01*
X107384819Y-100380476D02*
X106813390Y-100809047D01*
X106384819Y-100380476D02*
X106956247Y-100951904D01*
X107874819Y-85188094D02*
X106874819Y-85188094D01*
X106874819Y-85188094D02*
X106874819Y-84949999D01*
X106874819Y-84949999D02*
X106922438Y-84807142D01*
X106922438Y-84807142D02*
X107017676Y-84711904D01*
X107017676Y-84711904D02*
X107112914Y-84664285D01*
X107112914Y-84664285D02*
X107303390Y-84616666D01*
X107303390Y-84616666D02*
X107446247Y-84616666D01*
X107446247Y-84616666D02*
X107636723Y-84664285D01*
X107636723Y-84664285D02*
X107731961Y-84711904D01*
X107731961Y-84711904D02*
X107827200Y-84807142D01*
X107827200Y-84807142D02*
X107874819Y-84949999D01*
X107874819Y-84949999D02*
X107874819Y-85188094D01*
X106874819Y-83711904D02*
X106874819Y-84188094D01*
X106874819Y-84188094D02*
X107351009Y-84235713D01*
X107351009Y-84235713D02*
X107303390Y-84188094D01*
X107303390Y-84188094D02*
X107255771Y-84092856D01*
X107255771Y-84092856D02*
X107255771Y-83854761D01*
X107255771Y-83854761D02*
X107303390Y-83759523D01*
X107303390Y-83759523D02*
X107351009Y-83711904D01*
X107351009Y-83711904D02*
X107446247Y-83664285D01*
X107446247Y-83664285D02*
X107684342Y-83664285D01*
X107684342Y-83664285D02*
X107779580Y-83711904D01*
X107779580Y-83711904D02*
X107827200Y-83759523D01*
X107827200Y-83759523D02*
X107874819Y-83854761D01*
X107874819Y-83854761D02*
X107874819Y-84092856D01*
X107874819Y-84092856D02*
X107827200Y-84188094D01*
X107827200Y-84188094D02*
X107779580Y-84235713D01*
X107554819Y-80901904D02*
X106554819Y-80901904D01*
X107554819Y-80330476D02*
X106983390Y-80759047D01*
X106554819Y-80330476D02*
X107126247Y-80901904D01*
X107984819Y-64948094D02*
X106984819Y-64948094D01*
X106984819Y-64948094D02*
X106984819Y-64709999D01*
X106984819Y-64709999D02*
X107032438Y-64567142D01*
X107032438Y-64567142D02*
X107127676Y-64471904D01*
X107127676Y-64471904D02*
X107222914Y-64424285D01*
X107222914Y-64424285D02*
X107413390Y-64376666D01*
X107413390Y-64376666D02*
X107556247Y-64376666D01*
X107556247Y-64376666D02*
X107746723Y-64424285D01*
X107746723Y-64424285D02*
X107841961Y-64471904D01*
X107841961Y-64471904D02*
X107937200Y-64567142D01*
X107937200Y-64567142D02*
X107984819Y-64709999D01*
X107984819Y-64709999D02*
X107984819Y-64948094D01*
X107318152Y-63519523D02*
X107984819Y-63519523D01*
X106937200Y-63757618D02*
X107651485Y-63995713D01*
X107651485Y-63995713D02*
X107651485Y-63376666D01*
X107664819Y-60661904D02*
X106664819Y-60661904D01*
X107664819Y-60090476D02*
X107093390Y-60519047D01*
X106664819Y-60090476D02*
X107236247Y-60661904D01*
X131634819Y-66038094D02*
X130634819Y-66038094D01*
X130634819Y-66038094D02*
X130634819Y-65799999D01*
X130634819Y-65799999D02*
X130682438Y-65657142D01*
X130682438Y-65657142D02*
X130777676Y-65561904D01*
X130777676Y-65561904D02*
X130872914Y-65514285D01*
X130872914Y-65514285D02*
X131063390Y-65466666D01*
X131063390Y-65466666D02*
X131206247Y-65466666D01*
X131206247Y-65466666D02*
X131396723Y-65514285D01*
X131396723Y-65514285D02*
X131491961Y-65561904D01*
X131491961Y-65561904D02*
X131587200Y-65657142D01*
X131587200Y-65657142D02*
X131634819Y-65799999D01*
X131634819Y-65799999D02*
X131634819Y-66038094D01*
X130634819Y-65133332D02*
X130634819Y-64466666D01*
X130634819Y-64466666D02*
X131634819Y-64895237D01*
X131264819Y-60761904D02*
X130264819Y-60761904D01*
X131264819Y-60190476D02*
X130693390Y-60619047D01*
X130264819Y-60190476D02*
X130836247Y-60761904D01*
X69700476Y-73373200D02*
X69843333Y-73420819D01*
X69843333Y-73420819D02*
X70081428Y-73420819D01*
X70081428Y-73420819D02*
X70176666Y-73373200D01*
X70176666Y-73373200D02*
X70224285Y-73325580D01*
X70224285Y-73325580D02*
X70271904Y-73230342D01*
X70271904Y-73230342D02*
X70271904Y-73135104D01*
X70271904Y-73135104D02*
X70224285Y-73039866D01*
X70224285Y-73039866D02*
X70176666Y-72992247D01*
X70176666Y-72992247D02*
X70081428Y-72944628D01*
X70081428Y-72944628D02*
X69890952Y-72897009D01*
X69890952Y-72897009D02*
X69795714Y-72849390D01*
X69795714Y-72849390D02*
X69748095Y-72801771D01*
X69748095Y-72801771D02*
X69700476Y-72706533D01*
X69700476Y-72706533D02*
X69700476Y-72611295D01*
X69700476Y-72611295D02*
X69748095Y-72516057D01*
X69748095Y-72516057D02*
X69795714Y-72468438D01*
X69795714Y-72468438D02*
X69890952Y-72420819D01*
X69890952Y-72420819D02*
X70129047Y-72420819D01*
X70129047Y-72420819D02*
X70271904Y-72468438D01*
X70605238Y-72420819D02*
X70843333Y-73420819D01*
X70843333Y-73420819D02*
X71033809Y-72706533D01*
X71033809Y-72706533D02*
X71224285Y-73420819D01*
X71224285Y-73420819D02*
X71462381Y-72420819D01*
X72367142Y-73420819D02*
X71795714Y-73420819D01*
X72081428Y-73420819D02*
X72081428Y-72420819D01*
X72081428Y-72420819D02*
X71986190Y-72563676D01*
X71986190Y-72563676D02*
X71890952Y-72658914D01*
X71890952Y-72658914D02*
X71795714Y-72706533D01*
X72986190Y-72420819D02*
X73081428Y-72420819D01*
X73081428Y-72420819D02*
X73176666Y-72468438D01*
X73176666Y-72468438D02*
X73224285Y-72516057D01*
X73224285Y-72516057D02*
X73271904Y-72611295D01*
X73271904Y-72611295D02*
X73319523Y-72801771D01*
X73319523Y-72801771D02*
X73319523Y-73039866D01*
X73319523Y-73039866D02*
X73271904Y-73230342D01*
X73271904Y-73230342D02*
X73224285Y-73325580D01*
X73224285Y-73325580D02*
X73176666Y-73373200D01*
X73176666Y-73373200D02*
X73081428Y-73420819D01*
X73081428Y-73420819D02*
X72986190Y-73420819D01*
X72986190Y-73420819D02*
X72890952Y-73373200D01*
X72890952Y-73373200D02*
X72843333Y-73325580D01*
X72843333Y-73325580D02*
X72795714Y-73230342D01*
X72795714Y-73230342D02*
X72748095Y-73039866D01*
X72748095Y-73039866D02*
X72748095Y-72801771D01*
X72748095Y-72801771D02*
X72795714Y-72611295D01*
X72795714Y-72611295D02*
X72843333Y-72516057D01*
X72843333Y-72516057D02*
X72890952Y-72468438D01*
X72890952Y-72468438D02*
X72986190Y-72420819D01*
X70076667Y-52973200D02*
X70219524Y-53020819D01*
X70219524Y-53020819D02*
X70457619Y-53020819D01*
X70457619Y-53020819D02*
X70552857Y-52973200D01*
X70552857Y-52973200D02*
X70600476Y-52925580D01*
X70600476Y-52925580D02*
X70648095Y-52830342D01*
X70648095Y-52830342D02*
X70648095Y-52735104D01*
X70648095Y-52735104D02*
X70600476Y-52639866D01*
X70600476Y-52639866D02*
X70552857Y-52592247D01*
X70552857Y-52592247D02*
X70457619Y-52544628D01*
X70457619Y-52544628D02*
X70267143Y-52497009D01*
X70267143Y-52497009D02*
X70171905Y-52449390D01*
X70171905Y-52449390D02*
X70124286Y-52401771D01*
X70124286Y-52401771D02*
X70076667Y-52306533D01*
X70076667Y-52306533D02*
X70076667Y-52211295D01*
X70076667Y-52211295D02*
X70124286Y-52116057D01*
X70124286Y-52116057D02*
X70171905Y-52068438D01*
X70171905Y-52068438D02*
X70267143Y-52020819D01*
X70267143Y-52020819D02*
X70505238Y-52020819D01*
X70505238Y-52020819D02*
X70648095Y-52068438D01*
X70981429Y-52020819D02*
X71219524Y-53020819D01*
X71219524Y-53020819D02*
X71410000Y-52306533D01*
X71410000Y-52306533D02*
X71600476Y-53020819D01*
X71600476Y-53020819D02*
X71838572Y-52020819D01*
X72267143Y-53020819D02*
X72457619Y-53020819D01*
X72457619Y-53020819D02*
X72552857Y-52973200D01*
X72552857Y-52973200D02*
X72600476Y-52925580D01*
X72600476Y-52925580D02*
X72695714Y-52782723D01*
X72695714Y-52782723D02*
X72743333Y-52592247D01*
X72743333Y-52592247D02*
X72743333Y-52211295D01*
X72743333Y-52211295D02*
X72695714Y-52116057D01*
X72695714Y-52116057D02*
X72648095Y-52068438D01*
X72648095Y-52068438D02*
X72552857Y-52020819D01*
X72552857Y-52020819D02*
X72362381Y-52020819D01*
X72362381Y-52020819D02*
X72267143Y-52068438D01*
X72267143Y-52068438D02*
X72219524Y-52116057D01*
X72219524Y-52116057D02*
X72171905Y-52211295D01*
X72171905Y-52211295D02*
X72171905Y-52449390D01*
X72171905Y-52449390D02*
X72219524Y-52544628D01*
X72219524Y-52544628D02*
X72267143Y-52592247D01*
X72267143Y-52592247D02*
X72362381Y-52639866D01*
X72362381Y-52639866D02*
X72552857Y-52639866D01*
X72552857Y-52639866D02*
X72648095Y-52592247D01*
X72648095Y-52592247D02*
X72695714Y-52544628D01*
X72695714Y-52544628D02*
X72743333Y-52449390D01*
X84144819Y-64988094D02*
X83144819Y-64988094D01*
X83144819Y-64988094D02*
X83144819Y-64749999D01*
X83144819Y-64749999D02*
X83192438Y-64607142D01*
X83192438Y-64607142D02*
X83287676Y-64511904D01*
X83287676Y-64511904D02*
X83382914Y-64464285D01*
X83382914Y-64464285D02*
X83573390Y-64416666D01*
X83573390Y-64416666D02*
X83716247Y-64416666D01*
X83716247Y-64416666D02*
X83906723Y-64464285D01*
X83906723Y-64464285D02*
X84001961Y-64511904D01*
X84001961Y-64511904D02*
X84097200Y-64607142D01*
X84097200Y-64607142D02*
X84144819Y-64749999D01*
X84144819Y-64749999D02*
X84144819Y-64988094D01*
X84144819Y-63464285D02*
X84144819Y-64035713D01*
X84144819Y-63749999D02*
X83144819Y-63749999D01*
X83144819Y-63749999D02*
X83287676Y-63845237D01*
X83287676Y-63845237D02*
X83382914Y-63940475D01*
X83382914Y-63940475D02*
X83430533Y-64035713D01*
X83824819Y-60701904D02*
X82824819Y-60701904D01*
X83824819Y-60130476D02*
X83253390Y-60559047D01*
X82824819Y-60130476D02*
X83396247Y-60701904D01*
X83864819Y-104908094D02*
X82864819Y-104908094D01*
X82864819Y-104908094D02*
X82864819Y-104669999D01*
X82864819Y-104669999D02*
X82912438Y-104527142D01*
X82912438Y-104527142D02*
X83007676Y-104431904D01*
X83007676Y-104431904D02*
X83102914Y-104384285D01*
X83102914Y-104384285D02*
X83293390Y-104336666D01*
X83293390Y-104336666D02*
X83436247Y-104336666D01*
X83436247Y-104336666D02*
X83626723Y-104384285D01*
X83626723Y-104384285D02*
X83721961Y-104431904D01*
X83721961Y-104431904D02*
X83817200Y-104527142D01*
X83817200Y-104527142D02*
X83864819Y-104669999D01*
X83864819Y-104669999D02*
X83864819Y-104908094D01*
X82864819Y-104003332D02*
X82864819Y-103384285D01*
X82864819Y-103384285D02*
X83245771Y-103717618D01*
X83245771Y-103717618D02*
X83245771Y-103574761D01*
X83245771Y-103574761D02*
X83293390Y-103479523D01*
X83293390Y-103479523D02*
X83341009Y-103431904D01*
X83341009Y-103431904D02*
X83436247Y-103384285D01*
X83436247Y-103384285D02*
X83674342Y-103384285D01*
X83674342Y-103384285D02*
X83769580Y-103431904D01*
X83769580Y-103431904D02*
X83817200Y-103479523D01*
X83817200Y-103479523D02*
X83864819Y-103574761D01*
X83864819Y-103574761D02*
X83864819Y-103860475D01*
X83864819Y-103860475D02*
X83817200Y-103955713D01*
X83817200Y-103955713D02*
X83769580Y-104003332D01*
X83544819Y-100621904D02*
X82544819Y-100621904D01*
X83544819Y-100050476D02*
X82973390Y-100479047D01*
X82544819Y-100050476D02*
X83116247Y-100621904D01*
X84244819Y-85388094D02*
X83244819Y-85388094D01*
X83244819Y-85388094D02*
X83244819Y-85149999D01*
X83244819Y-85149999D02*
X83292438Y-85007142D01*
X83292438Y-85007142D02*
X83387676Y-84911904D01*
X83387676Y-84911904D02*
X83482914Y-84864285D01*
X83482914Y-84864285D02*
X83673390Y-84816666D01*
X83673390Y-84816666D02*
X83816247Y-84816666D01*
X83816247Y-84816666D02*
X84006723Y-84864285D01*
X84006723Y-84864285D02*
X84101961Y-84911904D01*
X84101961Y-84911904D02*
X84197200Y-85007142D01*
X84197200Y-85007142D02*
X84244819Y-85149999D01*
X84244819Y-85149999D02*
X84244819Y-85388094D01*
X83340057Y-84435713D02*
X83292438Y-84388094D01*
X83292438Y-84388094D02*
X83244819Y-84292856D01*
X83244819Y-84292856D02*
X83244819Y-84054761D01*
X83244819Y-84054761D02*
X83292438Y-83959523D01*
X83292438Y-83959523D02*
X83340057Y-83911904D01*
X83340057Y-83911904D02*
X83435295Y-83864285D01*
X83435295Y-83864285D02*
X83530533Y-83864285D01*
X83530533Y-83864285D02*
X83673390Y-83911904D01*
X83673390Y-83911904D02*
X84244819Y-84483332D01*
X84244819Y-84483332D02*
X84244819Y-83864285D01*
X83924819Y-81101904D02*
X82924819Y-81101904D01*
X83924819Y-80530476D02*
X83353390Y-80959047D01*
X82924819Y-80530476D02*
X83496247Y-81101904D01*
X69300476Y-94073200D02*
X69443333Y-94120819D01*
X69443333Y-94120819D02*
X69681428Y-94120819D01*
X69681428Y-94120819D02*
X69776666Y-94073200D01*
X69776666Y-94073200D02*
X69824285Y-94025580D01*
X69824285Y-94025580D02*
X69871904Y-93930342D01*
X69871904Y-93930342D02*
X69871904Y-93835104D01*
X69871904Y-93835104D02*
X69824285Y-93739866D01*
X69824285Y-93739866D02*
X69776666Y-93692247D01*
X69776666Y-93692247D02*
X69681428Y-93644628D01*
X69681428Y-93644628D02*
X69490952Y-93597009D01*
X69490952Y-93597009D02*
X69395714Y-93549390D01*
X69395714Y-93549390D02*
X69348095Y-93501771D01*
X69348095Y-93501771D02*
X69300476Y-93406533D01*
X69300476Y-93406533D02*
X69300476Y-93311295D01*
X69300476Y-93311295D02*
X69348095Y-93216057D01*
X69348095Y-93216057D02*
X69395714Y-93168438D01*
X69395714Y-93168438D02*
X69490952Y-93120819D01*
X69490952Y-93120819D02*
X69729047Y-93120819D01*
X69729047Y-93120819D02*
X69871904Y-93168438D01*
X70205238Y-93120819D02*
X70443333Y-94120819D01*
X70443333Y-94120819D02*
X70633809Y-93406533D01*
X70633809Y-93406533D02*
X70824285Y-94120819D01*
X70824285Y-94120819D02*
X71062381Y-93120819D01*
X71967142Y-94120819D02*
X71395714Y-94120819D01*
X71681428Y-94120819D02*
X71681428Y-93120819D01*
X71681428Y-93120819D02*
X71586190Y-93263676D01*
X71586190Y-93263676D02*
X71490952Y-93358914D01*
X71490952Y-93358914D02*
X71395714Y-93406533D01*
X72919523Y-94120819D02*
X72348095Y-94120819D01*
X72633809Y-94120819D02*
X72633809Y-93120819D01*
X72633809Y-93120819D02*
X72538571Y-93263676D01*
X72538571Y-93263676D02*
X72443333Y-93358914D01*
X72443333Y-93358914D02*
X72348095Y-93406533D01*
%TO.C,SW3*%
D12*
X111530000Y-75900000D02*
X112130000Y-75900000D01*
X111830000Y-76200000D02*
X111530000Y-75900000D01*
X112130000Y-75900000D02*
X111830000Y-76200000D01*
X113230000Y-74100000D02*
X113230000Y-85900000D01*
X117330000Y-74100000D02*
X113230000Y-74100000D01*
X117330000Y-85900000D02*
X113230000Y-85900000D01*
X118830000Y-80000000D02*
X119830000Y-80000000D01*
X119330000Y-79500000D02*
X119330000Y-80500000D01*
X121330000Y-74100000D02*
X125430000Y-74100000D01*
X125430000Y-74100000D02*
X125430000Y-76500000D01*
X125430000Y-78700000D02*
X125430000Y-81300000D01*
X125430000Y-83500000D02*
X125430000Y-85900000D01*
X125430000Y-85900000D02*
X121330000Y-85900000D01*
X122330000Y-80000000D02*
G75*
G02*
X116330000Y-80000000I-3000000J0D01*
G01*
X116330000Y-80000000D02*
G75*
G02*
X122330000Y-80000000I3000000J0D01*
G01*
%TO.C,U4*%
X137160000Y-54780000D02*
X135780000Y-54780000D01*
X135780000Y-53400000D02*
X135780000Y-54780000D01*
X134970000Y-51900000D02*
X146970000Y-51900000D01*
X146970000Y-89900000D01*
X134970000Y-89900000D01*
X134970000Y-51900000D01*
%TO.C,SW7*%
X156630000Y-82820000D02*
X156630000Y-78320000D01*
X154130000Y-77070000D02*
X152630000Y-77070000D01*
X152630000Y-84070000D02*
X154130000Y-84070000D01*
X150130000Y-78320000D02*
X150130000Y-82820000D01*
%TO.C,SW8*%
X156630000Y-66460000D02*
X156630000Y-61960000D01*
X154130000Y-60710000D02*
X152630000Y-60710000D01*
X152630000Y-67710000D02*
X154130000Y-67710000D01*
X150130000Y-61960000D02*
X150130000Y-66460000D01*
%TO.C,SW4*%
X110730000Y-96900000D02*
X111330000Y-96900000D01*
X111030000Y-97200000D02*
X110730000Y-96900000D01*
X111330000Y-96900000D02*
X111030000Y-97200000D01*
X112430000Y-95100000D02*
X112430000Y-106900000D01*
X116530000Y-95100000D02*
X112430000Y-95100000D01*
X116530000Y-106900000D02*
X112430000Y-106900000D01*
X118030000Y-101000000D02*
X119030000Y-101000000D01*
X118530000Y-100500000D02*
X118530000Y-101500000D01*
X120530000Y-95100000D02*
X124630000Y-95100000D01*
X124630000Y-95100000D02*
X124630000Y-97500000D01*
X124630000Y-99700000D02*
X124630000Y-102300000D01*
X124630000Y-104500000D02*
X124630000Y-106900000D01*
X124630000Y-106900000D02*
X120530000Y-106900000D01*
X121530000Y-101000000D02*
G75*
G02*
X115530000Y-101000000I-3000000J0D01*
G01*
X115530000Y-101000000D02*
G75*
G02*
X121530000Y-101000000I3000000J0D01*
G01*
%TO.C,U5*%
D13*
X133335000Y-96480000D02*
X133335000Y-113480000D01*
X135335000Y-115479090D02*
X149135000Y-115479090D01*
X137735000Y-109550730D02*
X146735000Y-109550730D01*
X137735000Y-116904030D02*
X137735000Y-109550730D01*
X146735000Y-109550730D02*
X146735000Y-116904030D01*
X146735000Y-116904030D02*
X137735000Y-116904030D01*
X149135000Y-94480000D02*
X135335000Y-94480000D01*
X151135000Y-113480000D02*
X151135000Y-96480000D01*
D12*
X133335000Y-96480000D02*
G75*
G02*
X135335000Y-94480000I2000000J0D01*
G01*
X135335000Y-115480000D02*
G75*
G02*
X133335000Y-113480000I44610J2044610D01*
G01*
X149135000Y-94480000D02*
G75*
G02*
X151135000Y-96480000I-44857J-2044857D01*
G01*
X151135000Y-113480000D02*
G75*
G02*
X149135000Y-115480000I-2044612J44612D01*
G01*
D14*
X153362000Y-113780000D02*
G75*
G02*
X153108000Y-113780000I-127000J0D01*
G01*
X153108000Y-113780000D02*
G75*
G02*
X153362000Y-113780000I127000J0D01*
G01*
D15*
X151122715Y-113541705D02*
X151119667Y-113590473D01*
X151115603Y-113639494D01*
X151122715Y-113541705D01*
X133345508Y-96458426D02*
X133347287Y-96409150D01*
X133350335Y-96360382D01*
X133354399Y-96311361D01*
X133359732Y-96262593D01*
X133366336Y-96213825D01*
X133373956Y-96165310D01*
X133382847Y-96117050D01*
X133392752Y-96069045D01*
X133345508Y-96458426D01*
%TO.C,SW6*%
D12*
X112395000Y-53515000D02*
X126365000Y-53515000D01*
X112395000Y-67485000D02*
X112395000Y-53515000D01*
X126365000Y-53515000D02*
X126365000Y-67485000D01*
X126365000Y-67485000D02*
X112395000Y-67485000D01*
%TO.C,SW5*%
X102135000Y-108385000D02*
X88165000Y-108385000D01*
X102135000Y-94415000D02*
X102135000Y-108385000D01*
X88165000Y-108385000D02*
X88165000Y-94415000D01*
X88165000Y-94415000D02*
X102135000Y-94415000D01*
%TO.C,SW1*%
X88265000Y-53415000D02*
X102235000Y-53415000D01*
X88265000Y-67385000D02*
X88265000Y-53415000D01*
X102235000Y-53415000D02*
X102235000Y-67385000D01*
X102235000Y-67385000D02*
X88265000Y-67385000D01*
%TO.C,SW2*%
X88155000Y-73655000D02*
X102125000Y-73655000D01*
X88155000Y-87625000D02*
X88155000Y-73655000D01*
X102125000Y-73655000D02*
X102125000Y-87625000D01*
X102125000Y-87625000D02*
X88155000Y-87625000D01*
%TO.C,D6*%
X104010000Y-102380000D02*
X106250000Y-102380000D01*
X106250000Y-106620000D01*
X104010000Y-106620000D01*
X104010000Y-102380000D01*
X106250000Y-103220000D02*
X104010000Y-103220000D01*
X106250000Y-103100000D02*
X104010000Y-103100000D01*
X106250000Y-102980000D02*
X104010000Y-102980000D01*
X105130000Y-107270000D02*
X105130000Y-106620000D01*
X105130000Y-101730000D02*
X105130000Y-102380000D01*
%TO.C,D5*%
X105300000Y-81680000D02*
X105300000Y-82330000D01*
X105300000Y-87220000D02*
X105300000Y-86570000D01*
X106420000Y-82930000D02*
X104180000Y-82930000D01*
X106420000Y-83050000D02*
X104180000Y-83050000D01*
X106420000Y-83170000D02*
X104180000Y-83170000D01*
X104180000Y-82330000D02*
X106420000Y-82330000D01*
X106420000Y-86570000D01*
X104180000Y-86570000D01*
X104180000Y-82330000D01*
%TO.C,D4*%
X105410000Y-61440000D02*
X105410000Y-62090000D01*
X105410000Y-66980000D02*
X105410000Y-66330000D01*
X106530000Y-62690000D02*
X104290000Y-62690000D01*
X106530000Y-62810000D02*
X104290000Y-62810000D01*
X106530000Y-62930000D02*
X104290000Y-62930000D01*
X104290000Y-62090000D02*
X106530000Y-62090000D01*
X106530000Y-66330000D01*
X104290000Y-66330000D01*
X104290000Y-62090000D01*
%TO.C,D7*%
X128420000Y-62190000D02*
X130660000Y-62190000D01*
X130660000Y-66430000D01*
X128420000Y-66430000D01*
X128420000Y-62190000D01*
X130660000Y-63030000D02*
X128420000Y-63030000D01*
X130660000Y-62910000D02*
X128420000Y-62910000D01*
X130660000Y-62790000D02*
X128420000Y-62790000D01*
X129540000Y-67080000D02*
X129540000Y-66430000D01*
X129540000Y-61540000D02*
X129540000Y-62190000D01*
%TO.C,SW10*%
X64525000Y-73855000D02*
X78495000Y-73855000D01*
X64525000Y-87825000D02*
X64525000Y-73855000D01*
X78495000Y-73855000D02*
X78495000Y-87825000D01*
X78495000Y-87825000D02*
X64525000Y-87825000D01*
%TO.C,SW9*%
X64425000Y-53455000D02*
X78395000Y-53455000D01*
X64425000Y-67425000D02*
X64425000Y-53455000D01*
X78395000Y-53455000D02*
X78395000Y-67425000D01*
X78395000Y-67425000D02*
X64425000Y-67425000D01*
%TO.C,D1*%
X81570000Y-61480000D02*
X81570000Y-62130000D01*
X81570000Y-67020000D02*
X81570000Y-66370000D01*
X82690000Y-62730000D02*
X80450000Y-62730000D01*
X82690000Y-62850000D02*
X80450000Y-62850000D01*
X82690000Y-62970000D02*
X80450000Y-62970000D01*
X80450000Y-62130000D02*
X82690000Y-62130000D01*
X82690000Y-66370000D01*
X80450000Y-66370000D01*
X80450000Y-62130000D01*
%TO.C,D3*%
X81290000Y-101400000D02*
X81290000Y-102050000D01*
X81290000Y-106940000D02*
X81290000Y-106290000D01*
X82410000Y-102650000D02*
X80170000Y-102650000D01*
X82410000Y-102770000D02*
X80170000Y-102770000D01*
X82410000Y-102890000D02*
X80170000Y-102890000D01*
X80170000Y-102050000D02*
X82410000Y-102050000D01*
X82410000Y-106290000D01*
X80170000Y-106290000D01*
X80170000Y-102050000D01*
%TO.C,D2*%
X81670000Y-81880000D02*
X81670000Y-82530000D01*
X81670000Y-87420000D02*
X81670000Y-86770000D01*
X82790000Y-83130000D02*
X80550000Y-83130000D01*
X82790000Y-83250000D02*
X80550000Y-83250000D01*
X82790000Y-83370000D02*
X80550000Y-83370000D01*
X80550000Y-82530000D02*
X82790000Y-82530000D01*
X82790000Y-86770000D01*
X80550000Y-86770000D01*
X80550000Y-82530000D01*
%TO.C,SW11*%
X64125000Y-94555000D02*
X78095000Y-94555000D01*
X64125000Y-108525000D02*
X64125000Y-94555000D01*
X78095000Y-94555000D02*
X78095000Y-108525000D01*
X78095000Y-108525000D02*
X64125000Y-108525000D01*
%TD*%
M02*
