M48
; DRILL file KiCad 10.0.6 date 2026-09-20T20:51:02
; FORMAT={-:-/ absolute / metric / decimal}
; #@! TF.CreationDate,2026-09-20T20:51:02+05:30
; #@! TF.GenerationSoftware,Kicad,Pcbnew,10.0.6
; #@! TF.FileFunction,Plated,1,2,PTH
FMAT,2
METRIC
; #@! TA.AperFunction,Plated,PTH,ComponentDrill
T1C0.800
; #@! TA.AperFunction,Plated,PTH,ComponentDrill
T2C1.000
; #@! TA.AperFunction,Plated,PTH,ComponentDrill
T3C1.100
; #@! TA.AperFunction,Plated,PTH,ComponentDrill
T4C1.500
%
G90
G05
T1
X81.29Y-100.36
X81.29Y-107.98
X81.57Y-60.44
X81.57Y-68.06
X81.67Y-80.84
X81.67Y-88.46
X105.13Y-100.69
X105.13Y-108.31
X105.3Y-80.64
X105.3Y-88.26
X105.41Y-60.4
X105.41Y-68.02
X129.54Y-60.5
X129.54Y-68.12
T2
X111.03Y-98.5
X111.03Y-101.0
X111.03Y-103.5
X111.83Y-77.5
X111.83Y-80.0
X111.83Y-82.5
X125.53Y-98.5
X125.53Y-103.5
X126.33Y-77.5
X126.33Y-82.5
X134.61Y-97.36
X134.61Y-99.9
X134.61Y-102.44
X134.61Y-104.98
X134.61Y-107.52
X134.61Y-110.06
X134.61Y-112.6
X137.16Y-53.4
X139.7Y-53.4
X142.24Y-53.4
X144.78Y-53.4
X149.86Y-97.36
X149.86Y-99.9
X149.86Y-102.44
X149.86Y-104.98
X149.86Y-107.52
X149.86Y-110.06
X149.86Y-112.6
T3
X151.13Y-60.96
X151.13Y-67.46
X151.13Y-77.32
X151.13Y-83.82
X155.63Y-60.96
X155.63Y-67.46
X155.63Y-77.32
X155.63Y-83.82
T4
X67.3Y-99.0
X67.6Y-57.9
X67.7Y-78.3
X73.65Y-96.46
X73.95Y-55.36
X74.05Y-75.76
X91.33Y-78.1
X91.34Y-98.86
X91.44Y-57.86
X97.68Y-75.56
X97.69Y-96.32
X97.79Y-55.32
X115.57Y-57.96
X121.92Y-55.42
T4
G00X117.88Y-95.4
M15
G01X119.18Y-95.4
M16
G05
G00X117.88Y-106.6
M15
G01X119.18Y-106.6
M16
G05
G00X118.68Y-74.4
M15
G01X119.98Y-74.4
M16
G05
G00X118.68Y-85.6
M15
G01X119.98Y-85.6
M16
G05
M30
