%TF.GenerationSoftware,KiCad,Pcbnew,10.0.6*%
%TF.CreationDate,2026-09-20T20:50:56+05:30*%
%TF.ProjectId,PCB,5043422e-6b69-4636-9164-5f7063625858,rev?*%
%TF.SameCoordinates,Original*%
%TF.FileFunction,Copper,L2,Bot*%
%TF.FilePolarity,Positive*%
%FSLAX46Y46*%
G04 Gerber Fmt 4.6, Leading zero omitted, Abs format (unit mm)*
G04 Created by KiCad (PCBNEW 10.0.6) date 2026-09-20 20:50:56*
%MOMM*%
%LPD*%
G01*
G04 APERTURE LIST*
G04 Aperture macros list*
%AMRoundRect*
0 Rectangle with rounded corners*
0 $1 Rounding radius*
0 $2 $3 $4 $5 $6 $7 $8 $9 X,Y pos of 4 corners*
0 Add a 4 corners polygon primitive as box body*
4,1,4,$2,$3,$4,$5,$6,$7,$8,$9,$2,$3,0*
0 Add four circle primitives for the rounded corners*
1,1,$1+$1,$2,$3*
1,1,$1+$1,$4,$5*
1,1,$1+$1,$6,$7*
1,1,$1+$1,$8,$9*
0 Add four rect primitives between the rounded corners*
20,1,$1+$1,$2,$3,$4,$5,0*
20,1,$1+$1,$4,$5,$6,$7,0*
20,1,$1+$1,$6,$7,$8,$9,0*
20,1,$1+$1,$8,$9,$2,$3,0*%
G04 Aperture macros list end*
%TA.AperFunction,ComponentPad*%
%ADD10R,2.000000X2.000000*%
%TD*%
%TA.AperFunction,ComponentPad*%
%ADD11C,2.000000*%
%TD*%
%TA.AperFunction,ComponentPad*%
%ADD12R,3.200000X2.000000*%
%TD*%
%TA.AperFunction,ComponentPad*%
%ADD13RoundRect,0.170000X-0.680000X-0.680000X0.680000X-0.680000X0.680000X0.680000X-0.680000X0.680000X0*%
%TD*%
%TA.AperFunction,ComponentPad*%
%ADD14C,1.700000*%
%TD*%
%TA.AperFunction,ComponentPad*%
%ADD15R,3.500000X1.700000*%
%TD*%
%TA.AperFunction,ComponentPad*%
%ADD16O,3.600000X1.700000*%
%TD*%
%TA.AperFunction,ComponentPad*%
%ADD17O,3.700000X1.700000*%
%TD*%
%TA.AperFunction,ComponentPad*%
%ADD18C,2.200000*%
%TD*%
%TA.AperFunction,ComponentPad*%
%ADD19C,1.600000*%
%TD*%
%TA.AperFunction,ComponentPad*%
%ADD20RoundRect,0.250000X-0.550000X0.550000X-0.550000X-0.550000X0.550000X-0.550000X0.550000X0.550000X0*%
%TD*%
%TA.AperFunction,Conductor*%
%ADD21C,0.200000*%
%TD*%
G04 APERTURE END LIST*
D10*
%TO.P,SW3,A,A_A*%
%TO.N,Net-(D6-K)*%
X111830000Y-77500000D03*
D11*
%TO.P,SW3,B,B_B*%
%TO.N,Net-(U5-PB09_A7_D7_RX)*%
X111830000Y-82500000D03*
%TO.P,SW3,C,C_C*%
%TO.N,Net-(U4-GND)*%
X111830000Y-80000000D03*
D12*
%TO.P,SW3,MP*%
%TO.N,N/C*%
X119330000Y-74400000D03*
X119330000Y-85600000D03*
D11*
%TO.P,SW3,S1,S1_S1*%
%TO.N,Net-(U5-3V3)*%
X126330000Y-82500000D03*
%TO.P,SW3,S2,S2_S2*%
%TO.N,Net-(U4-GND)*%
X126330000Y-77500000D03*
%TD*%
D13*
%TO.P,U4,1,GND_1*%
%TO.N,Net-(U4-GND)*%
X137160000Y-53400000D03*
D14*
%TO.P,U4,2,VCC_2*%
%TO.N,Net-(U4-VCC)*%
X139700000Y-53400000D03*
%TO.P,U4,3,SCL_3*%
%TO.N,Net-(U4-SCL)*%
X142240000Y-53400000D03*
%TO.P,U4,4,SDA_4*%
X144780000Y-53400000D03*
%TD*%
D11*
%TO.P,SW7,1,1_1*%
%TO.N,Net-(U4-GND)*%
X151130000Y-83820000D03*
X151130000Y-77320000D03*
%TO.P,SW7,2,2_2*%
%TO.N,Net-(U5-PA02_A0_D0)*%
X155630000Y-83820000D03*
X155630000Y-77320000D03*
%TD*%
%TO.P,SW8,1,1_1*%
%TO.N,Net-(U4-GND)*%
X151130000Y-67460000D03*
X151130000Y-60960000D03*
%TO.P,SW8,2,2_2*%
%TO.N,Net-(U5-PA4_A1_D1)*%
X155630000Y-67460000D03*
X155630000Y-60960000D03*
%TD*%
D10*
%TO.P,SW4,A,A_A*%
%TO.N,Net-(U5-PA6_A10_D10_MOSI)*%
X111030000Y-98500000D03*
D11*
%TO.P,SW4,B,B_B*%
%TO.N,Net-(D7-K)*%
X111030000Y-103500000D03*
%TO.P,SW4,C,C_C*%
%TO.N,Net-(U4-GND)*%
X111030000Y-101000000D03*
D12*
%TO.P,SW4,MP*%
%TO.N,N/C*%
X118530000Y-95400000D03*
X118530000Y-106600000D03*
D11*
%TO.P,SW4,S1,S1_S1*%
%TO.N,Net-(U5-PA5_A9_D9_MISO)*%
X125530000Y-103500000D03*
%TO.P,SW4,S2,S2_S2*%
%TO.N,Net-(U4-GND)*%
X125530000Y-98500000D03*
%TD*%
D15*
%TO.P,U5,1,PA02_A0_D0_1*%
%TO.N,Net-(U5-PA02_A0_D0)*%
X150860000Y-112600000D03*
D16*
%TO.P,U5,2,PA4_A1_D1_2*%
%TO.N,Net-(U5-PA4_A1_D1)*%
X150860000Y-110060000D03*
%TO.P,U5,3,PA10_A2_D2_3*%
%TO.N,Net-(U5-PA10_A2_D2)*%
X150860000Y-107520000D03*
%TO.P,U5,4,PA11_A3_D3_4*%
%TO.N,Net-(U5-PA11_A3_D3)*%
X150860000Y-104980000D03*
%TO.P,U5,5,PA8_A4_D4_SDA_5*%
%TO.N,Net-(U4-SCL)*%
X150860000Y-102440000D03*
%TO.P,U5,6,PA9_A5_D5_SCL_6*%
X150860000Y-99900000D03*
%TO.P,U5,7,PB08_A6_D6_TX_7*%
%TO.N,Net-(D6-K)*%
X150860000Y-97360000D03*
%TO.P,U5,8,PB09_A7_D7_RX_8*%
%TO.N,Net-(U5-PB09_A7_D7_RX)*%
X133610000Y-97360000D03*
%TO.P,U5,9,PA7_A8_D8_SCK_9*%
%TO.N,Net-(D7-K)*%
X133610000Y-99900000D03*
%TO.P,U5,10,PA5_A9_D9_MISO_10*%
%TO.N,Net-(U5-PA5_A9_D9_MISO)*%
X133610000Y-102440000D03*
D17*
%TO.P,U5,11,PA6_A10_D10_MOSI_11*%
%TO.N,Net-(U5-PA6_A10_D10_MOSI)*%
X133610000Y-104980000D03*
%TO.P,U5,12,3V3_12*%
%TO.N,Net-(U5-3V3)*%
X133610000Y-107520000D03*
%TO.P,U5,13,GND_13*%
%TO.N,Net-(U4-GND)*%
X133610000Y-110060000D03*
%TO.P,U5,14,5V_14*%
%TO.N,Net-(U4-VCC)*%
X133610000Y-112600000D03*
%TD*%
D18*
%TO.P,SW6,1,1_1*%
%TO.N,Net-(D7-A)*%
X121920000Y-55420000D03*
%TO.P,SW6,2,2_2*%
%TO.N,Net-(U5-PA11_A3_D3)*%
X115570000Y-57960000D03*
%TD*%
%TO.P,SW5,2,2_2*%
%TO.N,Net-(U5-PA10_A2_D2)*%
X91340000Y-98860000D03*
%TO.P,SW5,1,1_1*%
%TO.N,Net-(D6-A)*%
X97690000Y-96320000D03*
%TD*%
%TO.P,SW1,1,1_1*%
%TO.N,Net-(D4-A)*%
X97790000Y-55320000D03*
%TO.P,SW1,2,2_2*%
%TO.N,Net-(U5-PA11_A3_D3)*%
X91440000Y-57860000D03*
%TD*%
%TO.P,SW2,1,1_1*%
%TO.N,Net-(D5-A)*%
X97680000Y-75560000D03*
%TO.P,SW2,2,2_2*%
%TO.N,Net-(U4-SCL)*%
X91330000Y-78100000D03*
%TD*%
D19*
%TO.P,D6,2,A_2*%
%TO.N,Net-(D6-A)*%
X105130000Y-108310000D03*
D20*
%TO.P,D6,1,K_1*%
%TO.N,Net-(D6-K)*%
X105130000Y-100690000D03*
%TD*%
%TO.P,D5,1,K_1*%
%TO.N,Net-(D4-K)*%
X105300000Y-80640000D03*
D19*
%TO.P,D5,2,A_2*%
%TO.N,Net-(D5-A)*%
X105300000Y-88260000D03*
%TD*%
D20*
%TO.P,D4,1,K_1*%
%TO.N,Net-(D4-K)*%
X105410000Y-60400000D03*
D19*
%TO.P,D4,2,A_2*%
%TO.N,Net-(D4-A)*%
X105410000Y-68020000D03*
%TD*%
%TO.P,D7,2,A_2*%
%TO.N,Net-(D7-A)*%
X129540000Y-68120000D03*
D20*
%TO.P,D7,1,K_1*%
%TO.N,Net-(D7-K)*%
X129540000Y-60500000D03*
%TD*%
D18*
%TO.P,SW10,1,1_1*%
%TO.N,Net-(D2-A)*%
X74050000Y-75760000D03*
%TO.P,SW10,2,2_2*%
%TO.N,Net-(U5-PA4_A1_D1)*%
X67700000Y-78300000D03*
%TD*%
%TO.P,SW9,1,1_1*%
%TO.N,Net-(D1-A)*%
X73950000Y-55360000D03*
%TO.P,SW9,2,2_2*%
%TO.N,Net-(U5-PA02_A0_D0)*%
X67600000Y-57900000D03*
%TD*%
D20*
%TO.P,D1,1,K_1*%
%TO.N,Net-(D1-K)*%
X81570000Y-60440000D03*
D19*
%TO.P,D1,2,A_2*%
%TO.N,Net-(D1-A)*%
X81570000Y-68060000D03*
%TD*%
D20*
%TO.P,D3,1,K_1*%
%TO.N,Net-(D1-K)*%
X81290000Y-100360000D03*
D19*
%TO.P,D3,2,A_2*%
%TO.N,Net-(D3-A)*%
X81290000Y-107980000D03*
%TD*%
D20*
%TO.P,D2,1,K_1*%
%TO.N,Net-(D1-K)*%
X81670000Y-80840000D03*
D19*
%TO.P,D2,2,A_2*%
%TO.N,Net-(D2-A)*%
X81670000Y-88460000D03*
%TD*%
D18*
%TO.P,SW11,1,1_1*%
%TO.N,Net-(D3-A)*%
X73650000Y-96460000D03*
%TO.P,SW11,2,2_2*%
%TO.N,Net-(U5-PA10_A2_D2)*%
X67300000Y-99000000D03*
%TD*%
%TO.N,Net-(D6-K)*%
D21*
X143080000Y-97360000D02*
X149860000Y-97360000D01*
X123220000Y-77500000D02*
X143080000Y-97360000D01*
X111830000Y-77500000D02*
X123220000Y-77500000D01*
%TO.N,Net-(U4-GND)*%
X128180000Y-77500000D02*
X144720000Y-60960000D01*
X126330000Y-77500000D02*
X128180000Y-77500000D01*
%TO.N,Net-(U5-PA02_A0_D0)*%
X150896346Y-112600000D02*
X149860000Y-112600000D01*
X155630000Y-107866346D02*
X150896346Y-112600000D01*
X155630000Y-83820000D02*
X155630000Y-107866346D01*
%TO.N,Net-(U5-PA5_A9_D9_MISO)*%
X126590000Y-102440000D02*
X134610000Y-102440000D01*
X125530000Y-103500000D02*
X126590000Y-102440000D01*
%TO.N,Net-(D7-K)*%
X111030000Y-103500000D02*
X114630000Y-99900000D01*
X114630000Y-99900000D02*
X134610000Y-99900000D01*
%TO.N,Net-(U4-GND)*%
X113530000Y-98500000D02*
X125530000Y-98500000D01*
X111030000Y-101000000D02*
X113530000Y-98500000D01*
X144720000Y-60960000D02*
X151130000Y-60960000D01*
X137160000Y-53400000D02*
X144720000Y-60960000D01*
%TO.N,Net-(U5-PA11_A3_D3)*%
X115470000Y-57860000D02*
X115570000Y-57960000D01*
X91440000Y-57860000D02*
X115470000Y-57860000D01*
%TO.N,Net-(D1-K)*%
X80570000Y-81940000D02*
X81670000Y-80840000D01*
X80570000Y-99640000D02*
X80570000Y-81940000D01*
X81290000Y-100360000D02*
X80570000Y-99640000D01*
%TO.N,Net-(U4-GND)*%
X110490000Y-81340000D02*
X111830000Y-80000000D01*
X110490000Y-95460000D02*
X110490000Y-81340000D01*
X113530000Y-98500000D02*
X110490000Y-95460000D01*
%TD*%
M02*
