%TF.GenerationSoftware,KiCad,Pcbnew,10.0.6*%
%TF.CreationDate,2026-09-20T19:14:55+05:30*%
%TF.ProjectId,PCB,5043422e-6b69-4636-9164-5f7063625858,rev?*%
%TF.SameCoordinates,Original*%
%TF.FileFunction,Legend,Top*%
%TF.FilePolarity,Positive*%
%FSLAX46Y46*%
G04 Gerber Fmt 4.6, Leading zero omitted, Abs format (unit mm)*
G04 Created by KiCad (PCBNEW 10.0.6) date 2026-09-20 19:14:55*
%MOMM*%
%LPD*%
G01*
G04 APERTURE LIST*
%ADD10C,0.150000*%
%ADD11C,0.101600*%
%ADD12C,0.120000*%
%ADD13C,0.127000*%
%ADD14C,0.254000*%
%ADD15C,0.025400*%
G04 APERTURE END LIST*
D10*
X143810476Y-72493200D02*
X143953333Y-72540819D01*
X143953333Y-72540819D02*
X144191428Y-72540819D01*
X144191428Y-72540819D02*
X144286666Y-72493200D01*
X144286666Y-72493200D02*
X144334285Y-72445580D01*
X144334285Y-72445580D02*
X144381904Y-72350342D01*
X144381904Y-72350342D02*
X144381904Y-72255104D01*
X144381904Y-72255104D02*
X144334285Y-72159866D01*
X144334285Y-72159866D02*
X144286666Y-72112247D01*
X144286666Y-72112247D02*
X144191428Y-72064628D01*
X144191428Y-72064628D02*
X144000952Y-72017009D01*
X144000952Y-72017009D02*
X143905714Y-71969390D01*
X143905714Y-71969390D02*
X143858095Y-71921771D01*
X143858095Y-71921771D02*
X143810476Y-71826533D01*
X143810476Y-71826533D02*
X143810476Y-71731295D01*
X143810476Y-71731295D02*
X143858095Y-71636057D01*
X143858095Y-71636057D02*
X143905714Y-71588438D01*
X143905714Y-71588438D02*
X144000952Y-71540819D01*
X144000952Y-71540819D02*
X144239047Y-71540819D01*
X144239047Y-71540819D02*
X144381904Y-71588438D01*
X144715238Y-71540819D02*
X144953333Y-72540819D01*
X144953333Y-72540819D02*
X145143809Y-71826533D01*
X145143809Y-71826533D02*
X145334285Y-72540819D01*
X145334285Y-72540819D02*
X145572381Y-71540819D01*
X146477142Y-72540819D02*
X145905714Y-72540819D01*
X146191428Y-72540819D02*
X146191428Y-71540819D01*
X146191428Y-71540819D02*
X146096190Y-71683676D01*
X146096190Y-71683676D02*
X146000952Y-71778914D01*
X146000952Y-71778914D02*
X145905714Y-71826533D01*
X147096190Y-71540819D02*
X147191428Y-71540819D01*
X147191428Y-71540819D02*
X147286666Y-71588438D01*
X147286666Y-71588438D02*
X147334285Y-71636057D01*
X147334285Y-71636057D02*
X147381904Y-71731295D01*
X147381904Y-71731295D02*
X147429523Y-71921771D01*
X147429523Y-71921771D02*
X147429523Y-72159866D01*
X147429523Y-72159866D02*
X147381904Y-72350342D01*
X147381904Y-72350342D02*
X147334285Y-72445580D01*
X147334285Y-72445580D02*
X147286666Y-72493200D01*
X147286666Y-72493200D02*
X147191428Y-72540819D01*
X147191428Y-72540819D02*
X147096190Y-72540819D01*
X147096190Y-72540819D02*
X147000952Y-72493200D01*
X147000952Y-72493200D02*
X146953333Y-72445580D01*
X146953333Y-72445580D02*
X146905714Y-72350342D01*
X146905714Y-72350342D02*
X146858095Y-72159866D01*
X146858095Y-72159866D02*
X146858095Y-71921771D01*
X146858095Y-71921771D02*
X146905714Y-71731295D01*
X146905714Y-71731295D02*
X146953333Y-71636057D01*
X146953333Y-71636057D02*
X147000952Y-71588438D01*
X147000952Y-71588438D02*
X147096190Y-71540819D01*
X118474819Y-146138094D02*
X117474819Y-146138094D01*
X117474819Y-146138094D02*
X117474819Y-145899999D01*
X117474819Y-145899999D02*
X117522438Y-145757142D01*
X117522438Y-145757142D02*
X117617676Y-145661904D01*
X117617676Y-145661904D02*
X117712914Y-145614285D01*
X117712914Y-145614285D02*
X117903390Y-145566666D01*
X117903390Y-145566666D02*
X118046247Y-145566666D01*
X118046247Y-145566666D02*
X118236723Y-145614285D01*
X118236723Y-145614285D02*
X118331961Y-145661904D01*
X118331961Y-145661904D02*
X118427200Y-145757142D01*
X118427200Y-145757142D02*
X118474819Y-145899999D01*
X118474819Y-145899999D02*
X118474819Y-146138094D01*
X117474819Y-145233332D02*
X117474819Y-144566666D01*
X117474819Y-144566666D02*
X118474819Y-144995237D01*
X118104819Y-140861904D02*
X117104819Y-140861904D01*
X118104819Y-140290476D02*
X117533390Y-140719047D01*
X117104819Y-140290476D02*
X117676247Y-140861904D01*
X158544819Y-113708094D02*
X157544819Y-113708094D01*
X157544819Y-113708094D02*
X157544819Y-113469999D01*
X157544819Y-113469999D02*
X157592438Y-113327142D01*
X157592438Y-113327142D02*
X157687676Y-113231904D01*
X157687676Y-113231904D02*
X157782914Y-113184285D01*
X157782914Y-113184285D02*
X157973390Y-113136666D01*
X157973390Y-113136666D02*
X158116247Y-113136666D01*
X158116247Y-113136666D02*
X158306723Y-113184285D01*
X158306723Y-113184285D02*
X158401961Y-113231904D01*
X158401961Y-113231904D02*
X158497200Y-113327142D01*
X158497200Y-113327142D02*
X158544819Y-113469999D01*
X158544819Y-113469999D02*
X158544819Y-113708094D01*
X157544819Y-112231904D02*
X157544819Y-112708094D01*
X157544819Y-112708094D02*
X158021009Y-112755713D01*
X158021009Y-112755713D02*
X157973390Y-112708094D01*
X157973390Y-112708094D02*
X157925771Y-112612856D01*
X157925771Y-112612856D02*
X157925771Y-112374761D01*
X157925771Y-112374761D02*
X157973390Y-112279523D01*
X157973390Y-112279523D02*
X158021009Y-112231904D01*
X158021009Y-112231904D02*
X158116247Y-112184285D01*
X158116247Y-112184285D02*
X158354342Y-112184285D01*
X158354342Y-112184285D02*
X158449580Y-112231904D01*
X158449580Y-112231904D02*
X158497200Y-112279523D01*
X158497200Y-112279523D02*
X158544819Y-112374761D01*
X158544819Y-112374761D02*
X158544819Y-112612856D01*
X158544819Y-112612856D02*
X158497200Y-112708094D01*
X158497200Y-112708094D02*
X158449580Y-112755713D01*
X158224819Y-109421904D02*
X157224819Y-109421904D01*
X158224819Y-108850476D02*
X157653390Y-109279047D01*
X157224819Y-108850476D02*
X157796247Y-109421904D01*
D11*
X205397666Y-137896985D02*
X205397666Y-138616652D01*
X205397666Y-138616652D02*
X205440000Y-138701318D01*
X205440000Y-138701318D02*
X205482333Y-138743652D01*
X205482333Y-138743652D02*
X205567000Y-138785985D01*
X205567000Y-138785985D02*
X205736333Y-138785985D01*
X205736333Y-138785985D02*
X205821000Y-138743652D01*
X205821000Y-138743652D02*
X205863333Y-138701318D01*
X205863333Y-138701318D02*
X205905666Y-138616652D01*
X205905666Y-138616652D02*
X205905666Y-137896985D01*
X206752333Y-137896985D02*
X206328999Y-137896985D01*
X206328999Y-137896985D02*
X206286666Y-138320318D01*
X206286666Y-138320318D02*
X206328999Y-138277985D01*
X206328999Y-138277985D02*
X206413666Y-138235652D01*
X206413666Y-138235652D02*
X206625333Y-138235652D01*
X206625333Y-138235652D02*
X206709999Y-138277985D01*
X206709999Y-138277985D02*
X206752333Y-138320318D01*
X206752333Y-138320318D02*
X206794666Y-138404985D01*
X206794666Y-138404985D02*
X206794666Y-138616652D01*
X206794666Y-138616652D02*
X206752333Y-138701318D01*
X206752333Y-138701318D02*
X206709999Y-138743652D01*
X206709999Y-138743652D02*
X206625333Y-138785985D01*
X206625333Y-138785985D02*
X206413666Y-138785985D01*
X206413666Y-138785985D02*
X206328999Y-138743652D01*
X206328999Y-138743652D02*
X206286666Y-138701318D01*
D10*
X207598808Y-140965180D02*
X206932142Y-139965180D01*
X206932142Y-140965180D02*
X207598808Y-139965180D01*
X206551189Y-139965180D02*
X206551189Y-140965180D01*
X206122618Y-140250895D02*
X205646428Y-140250895D01*
X206217856Y-139965180D02*
X205884523Y-140965180D01*
X205884523Y-140965180D02*
X205551190Y-139965180D01*
X205027380Y-140965180D02*
X204836904Y-140965180D01*
X204836904Y-140965180D02*
X204741666Y-140917561D01*
X204741666Y-140917561D02*
X204646428Y-140822323D01*
X204646428Y-140822323D02*
X204598809Y-140631847D01*
X204598809Y-140631847D02*
X204598809Y-140298514D01*
X204598809Y-140298514D02*
X204646428Y-140108038D01*
X204646428Y-140108038D02*
X204741666Y-140012800D01*
X204741666Y-140012800D02*
X204836904Y-139965180D01*
X204836904Y-139965180D02*
X205027380Y-139965180D01*
X205027380Y-139965180D02*
X205122618Y-140012800D01*
X205122618Y-140012800D02*
X205217856Y-140108038D01*
X205217856Y-140108038D02*
X205265475Y-140298514D01*
X205265475Y-140298514D02*
X205265475Y-140631847D01*
X205265475Y-140631847D02*
X205217856Y-140822323D01*
X205217856Y-140822323D02*
X205122618Y-140917561D01*
X205122618Y-140917561D02*
X205027380Y-140965180D01*
X210836904Y-142012800D02*
X210694047Y-141965180D01*
X210694047Y-141965180D02*
X210455952Y-141965180D01*
X210455952Y-141965180D02*
X210360714Y-142012800D01*
X210360714Y-142012800D02*
X210313095Y-142060419D01*
X210313095Y-142060419D02*
X210265476Y-142155657D01*
X210265476Y-142155657D02*
X210265476Y-142250895D01*
X210265476Y-142250895D02*
X210313095Y-142346133D01*
X210313095Y-142346133D02*
X210360714Y-142393752D01*
X210360714Y-142393752D02*
X210455952Y-142441371D01*
X210455952Y-142441371D02*
X210646428Y-142488990D01*
X210646428Y-142488990D02*
X210741666Y-142536609D01*
X210741666Y-142536609D02*
X210789285Y-142584228D01*
X210789285Y-142584228D02*
X210836904Y-142679466D01*
X210836904Y-142679466D02*
X210836904Y-142774704D01*
X210836904Y-142774704D02*
X210789285Y-142869942D01*
X210789285Y-142869942D02*
X210741666Y-142917561D01*
X210741666Y-142917561D02*
X210646428Y-142965180D01*
X210646428Y-142965180D02*
X210408333Y-142965180D01*
X210408333Y-142965180D02*
X210265476Y-142917561D01*
X209455952Y-142012800D02*
X209551190Y-141965180D01*
X209551190Y-141965180D02*
X209741666Y-141965180D01*
X209741666Y-141965180D02*
X209836904Y-142012800D01*
X209836904Y-142012800D02*
X209884523Y-142108038D01*
X209884523Y-142108038D02*
X209884523Y-142488990D01*
X209884523Y-142488990D02*
X209836904Y-142584228D01*
X209836904Y-142584228D02*
X209741666Y-142631847D01*
X209741666Y-142631847D02*
X209551190Y-142631847D01*
X209551190Y-142631847D02*
X209455952Y-142584228D01*
X209455952Y-142584228D02*
X209408333Y-142488990D01*
X209408333Y-142488990D02*
X209408333Y-142393752D01*
X209408333Y-142393752D02*
X209884523Y-142298514D01*
X208598809Y-142012800D02*
X208694047Y-141965180D01*
X208694047Y-141965180D02*
X208884523Y-141965180D01*
X208884523Y-141965180D02*
X208979761Y-142012800D01*
X208979761Y-142012800D02*
X209027380Y-142108038D01*
X209027380Y-142108038D02*
X209027380Y-142488990D01*
X209027380Y-142488990D02*
X208979761Y-142584228D01*
X208979761Y-142584228D02*
X208884523Y-142631847D01*
X208884523Y-142631847D02*
X208694047Y-142631847D01*
X208694047Y-142631847D02*
X208598809Y-142584228D01*
X208598809Y-142584228D02*
X208551190Y-142488990D01*
X208551190Y-142488990D02*
X208551190Y-142393752D01*
X208551190Y-142393752D02*
X209027380Y-142298514D01*
X207741666Y-142012800D02*
X207836904Y-141965180D01*
X207836904Y-141965180D02*
X208027380Y-141965180D01*
X208027380Y-141965180D02*
X208122618Y-142012800D01*
X208122618Y-142012800D02*
X208170237Y-142108038D01*
X208170237Y-142108038D02*
X208170237Y-142488990D01*
X208170237Y-142488990D02*
X208122618Y-142584228D01*
X208122618Y-142584228D02*
X208027380Y-142631847D01*
X208027380Y-142631847D02*
X207836904Y-142631847D01*
X207836904Y-142631847D02*
X207741666Y-142584228D01*
X207741666Y-142584228D02*
X207694047Y-142488990D01*
X207694047Y-142488990D02*
X207694047Y-142393752D01*
X207694047Y-142393752D02*
X208170237Y-142298514D01*
X206836904Y-141965180D02*
X206836904Y-142965180D01*
X206836904Y-142012800D02*
X206932142Y-141965180D01*
X206932142Y-141965180D02*
X207122618Y-141965180D01*
X207122618Y-141965180D02*
X207217856Y-142012800D01*
X207217856Y-142012800D02*
X207265475Y-142060419D01*
X207265475Y-142060419D02*
X207313094Y-142155657D01*
X207313094Y-142155657D02*
X207313094Y-142441371D01*
X207313094Y-142441371D02*
X207265475Y-142536609D01*
X207265475Y-142536609D02*
X207217856Y-142584228D01*
X207217856Y-142584228D02*
X207122618Y-142631847D01*
X207122618Y-142631847D02*
X206932142Y-142631847D01*
X206932142Y-142631847D02*
X206836904Y-142584228D01*
X205646427Y-142012800D02*
X205503570Y-141965180D01*
X205503570Y-141965180D02*
X205265475Y-141965180D01*
X205265475Y-141965180D02*
X205170237Y-142012800D01*
X205170237Y-142012800D02*
X205122618Y-142060419D01*
X205122618Y-142060419D02*
X205074999Y-142155657D01*
X205074999Y-142155657D02*
X205074999Y-142250895D01*
X205074999Y-142250895D02*
X205122618Y-142346133D01*
X205122618Y-142346133D02*
X205170237Y-142393752D01*
X205170237Y-142393752D02*
X205265475Y-142441371D01*
X205265475Y-142441371D02*
X205455951Y-142488990D01*
X205455951Y-142488990D02*
X205551189Y-142536609D01*
X205551189Y-142536609D02*
X205598808Y-142584228D01*
X205598808Y-142584228D02*
X205646427Y-142679466D01*
X205646427Y-142679466D02*
X205646427Y-142774704D01*
X205646427Y-142774704D02*
X205598808Y-142869942D01*
X205598808Y-142869942D02*
X205551189Y-142917561D01*
X205551189Y-142917561D02*
X205455951Y-142965180D01*
X205455951Y-142965180D02*
X205217856Y-142965180D01*
X205217856Y-142965180D02*
X205074999Y-142917561D01*
X204789284Y-142631847D02*
X204408332Y-142631847D01*
X204646427Y-142965180D02*
X204646427Y-142108038D01*
X204646427Y-142108038D02*
X204598808Y-142012800D01*
X204598808Y-142012800D02*
X204503570Y-141965180D01*
X204503570Y-141965180D02*
X204408332Y-141965180D01*
X203646427Y-142631847D02*
X203646427Y-141965180D01*
X204074998Y-142631847D02*
X204074998Y-142108038D01*
X204074998Y-142108038D02*
X204027379Y-142012800D01*
X204027379Y-142012800D02*
X203932141Y-141965180D01*
X203932141Y-141965180D02*
X203789284Y-141965180D01*
X203789284Y-141965180D02*
X203694046Y-142012800D01*
X203694046Y-142012800D02*
X203646427Y-142060419D01*
X202741665Y-141965180D02*
X202741665Y-142965180D01*
X202741665Y-142012800D02*
X202836903Y-141965180D01*
X202836903Y-141965180D02*
X203027379Y-141965180D01*
X203027379Y-141965180D02*
X203122617Y-142012800D01*
X203122617Y-142012800D02*
X203170236Y-142060419D01*
X203170236Y-142060419D02*
X203217855Y-142155657D01*
X203217855Y-142155657D02*
X203217855Y-142441371D01*
X203217855Y-142441371D02*
X203170236Y-142536609D01*
X203170236Y-142536609D02*
X203122617Y-142584228D01*
X203122617Y-142584228D02*
X203027379Y-142631847D01*
X203027379Y-142631847D02*
X202836903Y-142631847D01*
X202836903Y-142631847D02*
X202741665Y-142584228D01*
X202265474Y-141965180D02*
X202265474Y-142631847D01*
X202265474Y-142965180D02*
X202313093Y-142917561D01*
X202313093Y-142917561D02*
X202265474Y-142869942D01*
X202265474Y-142869942D02*
X202217855Y-142917561D01*
X202217855Y-142917561D02*
X202265474Y-142965180D01*
X202265474Y-142965180D02*
X202265474Y-142869942D01*
X201646427Y-141965180D02*
X201741665Y-142012800D01*
X201741665Y-142012800D02*
X201789284Y-142060419D01*
X201789284Y-142060419D02*
X201836903Y-142155657D01*
X201836903Y-142155657D02*
X201836903Y-142441371D01*
X201836903Y-142441371D02*
X201789284Y-142536609D01*
X201789284Y-142536609D02*
X201741665Y-142584228D01*
X201741665Y-142584228D02*
X201646427Y-142631847D01*
X201646427Y-142631847D02*
X201503570Y-142631847D01*
X201503570Y-142631847D02*
X201408332Y-142584228D01*
X201408332Y-142584228D02*
X201360713Y-142536609D01*
X201360713Y-142536609D02*
X201313094Y-142441371D01*
X201313094Y-142441371D02*
X201313094Y-142155657D01*
X201313094Y-142155657D02*
X201360713Y-142060419D01*
X201360713Y-142060419D02*
X201408332Y-142012800D01*
X201408332Y-142012800D02*
X201503570Y-141965180D01*
X201503570Y-141965180D02*
X201646427Y-141965180D01*
X199374819Y-113038094D02*
X198374819Y-113038094D01*
X198374819Y-113038094D02*
X198374819Y-112799999D01*
X198374819Y-112799999D02*
X198422438Y-112657142D01*
X198422438Y-112657142D02*
X198517676Y-112561904D01*
X198517676Y-112561904D02*
X198612914Y-112514285D01*
X198612914Y-112514285D02*
X198803390Y-112466666D01*
X198803390Y-112466666D02*
X198946247Y-112466666D01*
X198946247Y-112466666D02*
X199136723Y-112514285D01*
X199136723Y-112514285D02*
X199231961Y-112561904D01*
X199231961Y-112561904D02*
X199327200Y-112657142D01*
X199327200Y-112657142D02*
X199374819Y-112799999D01*
X199374819Y-112799999D02*
X199374819Y-113038094D01*
X198374819Y-111609523D02*
X198374819Y-111799999D01*
X198374819Y-111799999D02*
X198422438Y-111895237D01*
X198422438Y-111895237D02*
X198470057Y-111942856D01*
X198470057Y-111942856D02*
X198612914Y-112038094D01*
X198612914Y-112038094D02*
X198803390Y-112085713D01*
X198803390Y-112085713D02*
X199184342Y-112085713D01*
X199184342Y-112085713D02*
X199279580Y-112038094D01*
X199279580Y-112038094D02*
X199327200Y-111990475D01*
X199327200Y-111990475D02*
X199374819Y-111895237D01*
X199374819Y-111895237D02*
X199374819Y-111704761D01*
X199374819Y-111704761D02*
X199327200Y-111609523D01*
X199327200Y-111609523D02*
X199279580Y-111561904D01*
X199279580Y-111561904D02*
X199184342Y-111514285D01*
X199184342Y-111514285D02*
X198946247Y-111514285D01*
X198946247Y-111514285D02*
X198851009Y-111561904D01*
X198851009Y-111561904D02*
X198803390Y-111609523D01*
X198803390Y-111609523D02*
X198755771Y-111704761D01*
X198755771Y-111704761D02*
X198755771Y-111895237D01*
X198755771Y-111895237D02*
X198803390Y-111990475D01*
X198803390Y-111990475D02*
X198851009Y-112038094D01*
X198851009Y-112038094D02*
X198946247Y-112085713D01*
X199054819Y-108751904D02*
X198054819Y-108751904D01*
X199054819Y-108180476D02*
X198483390Y-108609047D01*
X198054819Y-108180476D02*
X198626247Y-108751904D01*
X105186667Y-72933200D02*
X105329524Y-72980819D01*
X105329524Y-72980819D02*
X105567619Y-72980819D01*
X105567619Y-72980819D02*
X105662857Y-72933200D01*
X105662857Y-72933200D02*
X105710476Y-72885580D01*
X105710476Y-72885580D02*
X105758095Y-72790342D01*
X105758095Y-72790342D02*
X105758095Y-72695104D01*
X105758095Y-72695104D02*
X105710476Y-72599866D01*
X105710476Y-72599866D02*
X105662857Y-72552247D01*
X105662857Y-72552247D02*
X105567619Y-72504628D01*
X105567619Y-72504628D02*
X105377143Y-72457009D01*
X105377143Y-72457009D02*
X105281905Y-72409390D01*
X105281905Y-72409390D02*
X105234286Y-72361771D01*
X105234286Y-72361771D02*
X105186667Y-72266533D01*
X105186667Y-72266533D02*
X105186667Y-72171295D01*
X105186667Y-72171295D02*
X105234286Y-72076057D01*
X105234286Y-72076057D02*
X105281905Y-72028438D01*
X105281905Y-72028438D02*
X105377143Y-71980819D01*
X105377143Y-71980819D02*
X105615238Y-71980819D01*
X105615238Y-71980819D02*
X105758095Y-72028438D01*
X106091429Y-71980819D02*
X106329524Y-72980819D01*
X106329524Y-72980819D02*
X106520000Y-72266533D01*
X106520000Y-72266533D02*
X106710476Y-72980819D01*
X106710476Y-72980819D02*
X106948572Y-71980819D01*
X107377143Y-72980819D02*
X107567619Y-72980819D01*
X107567619Y-72980819D02*
X107662857Y-72933200D01*
X107662857Y-72933200D02*
X107710476Y-72885580D01*
X107710476Y-72885580D02*
X107805714Y-72742723D01*
X107805714Y-72742723D02*
X107853333Y-72552247D01*
X107853333Y-72552247D02*
X107853333Y-72171295D01*
X107853333Y-72171295D02*
X107805714Y-72076057D01*
X107805714Y-72076057D02*
X107758095Y-72028438D01*
X107758095Y-72028438D02*
X107662857Y-71980819D01*
X107662857Y-71980819D02*
X107472381Y-71980819D01*
X107472381Y-71980819D02*
X107377143Y-72028438D01*
X107377143Y-72028438D02*
X107329524Y-72076057D01*
X107329524Y-72076057D02*
X107281905Y-72171295D01*
X107281905Y-72171295D02*
X107281905Y-72409390D01*
X107281905Y-72409390D02*
X107329524Y-72504628D01*
X107329524Y-72504628D02*
X107377143Y-72552247D01*
X107377143Y-72552247D02*
X107472381Y-72599866D01*
X107472381Y-72599866D02*
X107662857Y-72599866D01*
X107662857Y-72599866D02*
X107758095Y-72552247D01*
X107758095Y-72552247D02*
X107805714Y-72504628D01*
X107805714Y-72504628D02*
X107853333Y-72409390D01*
X119254819Y-84948094D02*
X118254819Y-84948094D01*
X118254819Y-84948094D02*
X118254819Y-84709999D01*
X118254819Y-84709999D02*
X118302438Y-84567142D01*
X118302438Y-84567142D02*
X118397676Y-84471904D01*
X118397676Y-84471904D02*
X118492914Y-84424285D01*
X118492914Y-84424285D02*
X118683390Y-84376666D01*
X118683390Y-84376666D02*
X118826247Y-84376666D01*
X118826247Y-84376666D02*
X119016723Y-84424285D01*
X119016723Y-84424285D02*
X119111961Y-84471904D01*
X119111961Y-84471904D02*
X119207200Y-84567142D01*
X119207200Y-84567142D02*
X119254819Y-84709999D01*
X119254819Y-84709999D02*
X119254819Y-84948094D01*
X119254819Y-83424285D02*
X119254819Y-83995713D01*
X119254819Y-83709999D02*
X118254819Y-83709999D01*
X118254819Y-83709999D02*
X118397676Y-83805237D01*
X118397676Y-83805237D02*
X118492914Y-83900475D01*
X118492914Y-83900475D02*
X118540533Y-83995713D01*
X118934819Y-80661904D02*
X117934819Y-80661904D01*
X118934819Y-80090476D02*
X118363390Y-80519047D01*
X117934819Y-80090476D02*
X118506247Y-80661904D01*
X232857200Y-133833332D02*
X232904819Y-133690475D01*
X232904819Y-133690475D02*
X232904819Y-133452380D01*
X232904819Y-133452380D02*
X232857200Y-133357142D01*
X232857200Y-133357142D02*
X232809580Y-133309523D01*
X232809580Y-133309523D02*
X232714342Y-133261904D01*
X232714342Y-133261904D02*
X232619104Y-133261904D01*
X232619104Y-133261904D02*
X232523866Y-133309523D01*
X232523866Y-133309523D02*
X232476247Y-133357142D01*
X232476247Y-133357142D02*
X232428628Y-133452380D01*
X232428628Y-133452380D02*
X232381009Y-133642856D01*
X232381009Y-133642856D02*
X232333390Y-133738094D01*
X232333390Y-133738094D02*
X232285771Y-133785713D01*
X232285771Y-133785713D02*
X232190533Y-133833332D01*
X232190533Y-133833332D02*
X232095295Y-133833332D01*
X232095295Y-133833332D02*
X232000057Y-133785713D01*
X232000057Y-133785713D02*
X231952438Y-133738094D01*
X231952438Y-133738094D02*
X231904819Y-133642856D01*
X231904819Y-133642856D02*
X231904819Y-133404761D01*
X231904819Y-133404761D02*
X231952438Y-133261904D01*
X231904819Y-132928570D02*
X232904819Y-132690475D01*
X232904819Y-132690475D02*
X232190533Y-132499999D01*
X232190533Y-132499999D02*
X232904819Y-132309523D01*
X232904819Y-132309523D02*
X231904819Y-132071428D01*
X231904819Y-131785713D02*
X231904819Y-131119047D01*
X231904819Y-131119047D02*
X232904819Y-131547618D01*
X104886667Y-133133200D02*
X105029524Y-133180819D01*
X105029524Y-133180819D02*
X105267619Y-133180819D01*
X105267619Y-133180819D02*
X105362857Y-133133200D01*
X105362857Y-133133200D02*
X105410476Y-133085580D01*
X105410476Y-133085580D02*
X105458095Y-132990342D01*
X105458095Y-132990342D02*
X105458095Y-132895104D01*
X105458095Y-132895104D02*
X105410476Y-132799866D01*
X105410476Y-132799866D02*
X105362857Y-132752247D01*
X105362857Y-132752247D02*
X105267619Y-132704628D01*
X105267619Y-132704628D02*
X105077143Y-132657009D01*
X105077143Y-132657009D02*
X104981905Y-132609390D01*
X104981905Y-132609390D02*
X104934286Y-132561771D01*
X104934286Y-132561771D02*
X104886667Y-132466533D01*
X104886667Y-132466533D02*
X104886667Y-132371295D01*
X104886667Y-132371295D02*
X104934286Y-132276057D01*
X104934286Y-132276057D02*
X104981905Y-132228438D01*
X104981905Y-132228438D02*
X105077143Y-132180819D01*
X105077143Y-132180819D02*
X105315238Y-132180819D01*
X105315238Y-132180819D02*
X105458095Y-132228438D01*
X105791429Y-132180819D02*
X106029524Y-133180819D01*
X106029524Y-133180819D02*
X106220000Y-132466533D01*
X106220000Y-132466533D02*
X106410476Y-133180819D01*
X106410476Y-133180819D02*
X106648572Y-132180819D01*
X107458095Y-132180819D02*
X107267619Y-132180819D01*
X107267619Y-132180819D02*
X107172381Y-132228438D01*
X107172381Y-132228438D02*
X107124762Y-132276057D01*
X107124762Y-132276057D02*
X107029524Y-132418914D01*
X107029524Y-132418914D02*
X106981905Y-132609390D01*
X106981905Y-132609390D02*
X106981905Y-132990342D01*
X106981905Y-132990342D02*
X107029524Y-133085580D01*
X107029524Y-133085580D02*
X107077143Y-133133200D01*
X107077143Y-133133200D02*
X107172381Y-133180819D01*
X107172381Y-133180819D02*
X107362857Y-133180819D01*
X107362857Y-133180819D02*
X107458095Y-133133200D01*
X107458095Y-133133200D02*
X107505714Y-133085580D01*
X107505714Y-133085580D02*
X107553333Y-132990342D01*
X107553333Y-132990342D02*
X107553333Y-132752247D01*
X107553333Y-132752247D02*
X107505714Y-132657009D01*
X107505714Y-132657009D02*
X107458095Y-132609390D01*
X107458095Y-132609390D02*
X107362857Y-132561771D01*
X107362857Y-132561771D02*
X107172381Y-132561771D01*
X107172381Y-132561771D02*
X107077143Y-132609390D01*
X107077143Y-132609390D02*
X107029524Y-132657009D01*
X107029524Y-132657009D02*
X106981905Y-132752247D01*
X199474819Y-84028094D02*
X198474819Y-84028094D01*
X198474819Y-84028094D02*
X198474819Y-83789999D01*
X198474819Y-83789999D02*
X198522438Y-83647142D01*
X198522438Y-83647142D02*
X198617676Y-83551904D01*
X198617676Y-83551904D02*
X198712914Y-83504285D01*
X198712914Y-83504285D02*
X198903390Y-83456666D01*
X198903390Y-83456666D02*
X199046247Y-83456666D01*
X199046247Y-83456666D02*
X199236723Y-83504285D01*
X199236723Y-83504285D02*
X199331961Y-83551904D01*
X199331961Y-83551904D02*
X199427200Y-83647142D01*
X199427200Y-83647142D02*
X199474819Y-83789999D01*
X199474819Y-83789999D02*
X199474819Y-84028094D01*
X198474819Y-83123332D02*
X198474819Y-82504285D01*
X198474819Y-82504285D02*
X198855771Y-82837618D01*
X198855771Y-82837618D02*
X198855771Y-82694761D01*
X198855771Y-82694761D02*
X198903390Y-82599523D01*
X198903390Y-82599523D02*
X198951009Y-82551904D01*
X198951009Y-82551904D02*
X199046247Y-82504285D01*
X199046247Y-82504285D02*
X199284342Y-82504285D01*
X199284342Y-82504285D02*
X199379580Y-82551904D01*
X199379580Y-82551904D02*
X199427200Y-82599523D01*
X199427200Y-82599523D02*
X199474819Y-82694761D01*
X199474819Y-82694761D02*
X199474819Y-82980475D01*
X199474819Y-82980475D02*
X199427200Y-83075713D01*
X199427200Y-83075713D02*
X199379580Y-83123332D01*
X199154819Y-79741904D02*
X198154819Y-79741904D01*
X199154819Y-79170476D02*
X198583390Y-79599047D01*
X198154819Y-79170476D02*
X198726247Y-79741904D01*
X119254819Y-114248094D02*
X118254819Y-114248094D01*
X118254819Y-114248094D02*
X118254819Y-114009999D01*
X118254819Y-114009999D02*
X118302438Y-113867142D01*
X118302438Y-113867142D02*
X118397676Y-113771904D01*
X118397676Y-113771904D02*
X118492914Y-113724285D01*
X118492914Y-113724285D02*
X118683390Y-113676666D01*
X118683390Y-113676666D02*
X118826247Y-113676666D01*
X118826247Y-113676666D02*
X119016723Y-113724285D01*
X119016723Y-113724285D02*
X119111961Y-113771904D01*
X119111961Y-113771904D02*
X119207200Y-113867142D01*
X119207200Y-113867142D02*
X119254819Y-114009999D01*
X119254819Y-114009999D02*
X119254819Y-114248094D01*
X118588152Y-112819523D02*
X119254819Y-112819523D01*
X118207200Y-113057618D02*
X118921485Y-113295713D01*
X118921485Y-113295713D02*
X118921485Y-112676666D01*
X118934819Y-109961904D02*
X117934819Y-109961904D01*
X118934819Y-109390476D02*
X118363390Y-109819047D01*
X117934819Y-109390476D02*
X118506247Y-109961904D01*
X105186667Y-102233200D02*
X105329524Y-102280819D01*
X105329524Y-102280819D02*
X105567619Y-102280819D01*
X105567619Y-102280819D02*
X105662857Y-102233200D01*
X105662857Y-102233200D02*
X105710476Y-102185580D01*
X105710476Y-102185580D02*
X105758095Y-102090342D01*
X105758095Y-102090342D02*
X105758095Y-101995104D01*
X105758095Y-101995104D02*
X105710476Y-101899866D01*
X105710476Y-101899866D02*
X105662857Y-101852247D01*
X105662857Y-101852247D02*
X105567619Y-101804628D01*
X105567619Y-101804628D02*
X105377143Y-101757009D01*
X105377143Y-101757009D02*
X105281905Y-101709390D01*
X105281905Y-101709390D02*
X105234286Y-101661771D01*
X105234286Y-101661771D02*
X105186667Y-101566533D01*
X105186667Y-101566533D02*
X105186667Y-101471295D01*
X105186667Y-101471295D02*
X105234286Y-101376057D01*
X105234286Y-101376057D02*
X105281905Y-101328438D01*
X105281905Y-101328438D02*
X105377143Y-101280819D01*
X105377143Y-101280819D02*
X105615238Y-101280819D01*
X105615238Y-101280819D02*
X105758095Y-101328438D01*
X106091429Y-101280819D02*
X106329524Y-102280819D01*
X106329524Y-102280819D02*
X106520000Y-101566533D01*
X106520000Y-101566533D02*
X106710476Y-102280819D01*
X106710476Y-102280819D02*
X106948572Y-101280819D01*
X107853333Y-102280819D02*
X107281905Y-102280819D01*
X107567619Y-102280819D02*
X107567619Y-101280819D01*
X107567619Y-101280819D02*
X107472381Y-101423676D01*
X107472381Y-101423676D02*
X107377143Y-101518914D01*
X107377143Y-101518914D02*
X107281905Y-101566533D01*
X232457200Y-152733332D02*
X232504819Y-152590475D01*
X232504819Y-152590475D02*
X232504819Y-152352380D01*
X232504819Y-152352380D02*
X232457200Y-152257142D01*
X232457200Y-152257142D02*
X232409580Y-152209523D01*
X232409580Y-152209523D02*
X232314342Y-152161904D01*
X232314342Y-152161904D02*
X232219104Y-152161904D01*
X232219104Y-152161904D02*
X232123866Y-152209523D01*
X232123866Y-152209523D02*
X232076247Y-152257142D01*
X232076247Y-152257142D02*
X232028628Y-152352380D01*
X232028628Y-152352380D02*
X231981009Y-152542856D01*
X231981009Y-152542856D02*
X231933390Y-152638094D01*
X231933390Y-152638094D02*
X231885771Y-152685713D01*
X231885771Y-152685713D02*
X231790533Y-152733332D01*
X231790533Y-152733332D02*
X231695295Y-152733332D01*
X231695295Y-152733332D02*
X231600057Y-152685713D01*
X231600057Y-152685713D02*
X231552438Y-152638094D01*
X231552438Y-152638094D02*
X231504819Y-152542856D01*
X231504819Y-152542856D02*
X231504819Y-152304761D01*
X231504819Y-152304761D02*
X231552438Y-152161904D01*
X231504819Y-151828570D02*
X232504819Y-151590475D01*
X232504819Y-151590475D02*
X231790533Y-151399999D01*
X231790533Y-151399999D02*
X232504819Y-151209523D01*
X232504819Y-151209523D02*
X231504819Y-150971428D01*
X231933390Y-150447618D02*
X231885771Y-150542856D01*
X231885771Y-150542856D02*
X231838152Y-150590475D01*
X231838152Y-150590475D02*
X231742914Y-150638094D01*
X231742914Y-150638094D02*
X231695295Y-150638094D01*
X231695295Y-150638094D02*
X231600057Y-150590475D01*
X231600057Y-150590475D02*
X231552438Y-150542856D01*
X231552438Y-150542856D02*
X231504819Y-150447618D01*
X231504819Y-150447618D02*
X231504819Y-150257142D01*
X231504819Y-150257142D02*
X231552438Y-150161904D01*
X231552438Y-150161904D02*
X231600057Y-150114285D01*
X231600057Y-150114285D02*
X231695295Y-150066666D01*
X231695295Y-150066666D02*
X231742914Y-150066666D01*
X231742914Y-150066666D02*
X231838152Y-150114285D01*
X231838152Y-150114285D02*
X231885771Y-150161904D01*
X231885771Y-150161904D02*
X231933390Y-150257142D01*
X231933390Y-150257142D02*
X231933390Y-150447618D01*
X231933390Y-150447618D02*
X231981009Y-150542856D01*
X231981009Y-150542856D02*
X232028628Y-150590475D01*
X232028628Y-150590475D02*
X232123866Y-150638094D01*
X232123866Y-150638094D02*
X232314342Y-150638094D01*
X232314342Y-150638094D02*
X232409580Y-150590475D01*
X232409580Y-150590475D02*
X232457200Y-150542856D01*
X232457200Y-150542856D02*
X232504819Y-150447618D01*
X232504819Y-150447618D02*
X232504819Y-150257142D01*
X232504819Y-150257142D02*
X232457200Y-150161904D01*
X232457200Y-150161904D02*
X232409580Y-150114285D01*
X232409580Y-150114285D02*
X232314342Y-150066666D01*
X232314342Y-150066666D02*
X232123866Y-150066666D01*
X232123866Y-150066666D02*
X232028628Y-150114285D01*
X232028628Y-150114285D02*
X231981009Y-150161904D01*
X231981009Y-150161904D02*
X231933390Y-150257142D01*
X144476667Y-101693200D02*
X144619524Y-101740819D01*
X144619524Y-101740819D02*
X144857619Y-101740819D01*
X144857619Y-101740819D02*
X144952857Y-101693200D01*
X144952857Y-101693200D02*
X145000476Y-101645580D01*
X145000476Y-101645580D02*
X145048095Y-101550342D01*
X145048095Y-101550342D02*
X145048095Y-101455104D01*
X145048095Y-101455104D02*
X145000476Y-101359866D01*
X145000476Y-101359866D02*
X144952857Y-101312247D01*
X144952857Y-101312247D02*
X144857619Y-101264628D01*
X144857619Y-101264628D02*
X144667143Y-101217009D01*
X144667143Y-101217009D02*
X144571905Y-101169390D01*
X144571905Y-101169390D02*
X144524286Y-101121771D01*
X144524286Y-101121771D02*
X144476667Y-101026533D01*
X144476667Y-101026533D02*
X144476667Y-100931295D01*
X144476667Y-100931295D02*
X144524286Y-100836057D01*
X144524286Y-100836057D02*
X144571905Y-100788438D01*
X144571905Y-100788438D02*
X144667143Y-100740819D01*
X144667143Y-100740819D02*
X144905238Y-100740819D01*
X144905238Y-100740819D02*
X145048095Y-100788438D01*
X145381429Y-100740819D02*
X145619524Y-101740819D01*
X145619524Y-101740819D02*
X145810000Y-101026533D01*
X145810000Y-101026533D02*
X146000476Y-101740819D01*
X146000476Y-101740819D02*
X146238572Y-100740819D01*
X146571905Y-100836057D02*
X146619524Y-100788438D01*
X146619524Y-100788438D02*
X146714762Y-100740819D01*
X146714762Y-100740819D02*
X146952857Y-100740819D01*
X146952857Y-100740819D02*
X147048095Y-100788438D01*
X147048095Y-100788438D02*
X147095714Y-100836057D01*
X147095714Y-100836057D02*
X147143333Y-100931295D01*
X147143333Y-100931295D02*
X147143333Y-101026533D01*
X147143333Y-101026533D02*
X147095714Y-101169390D01*
X147095714Y-101169390D02*
X146524286Y-101740819D01*
X146524286Y-101740819D02*
X147143333Y-101740819D01*
X216866667Y-103807200D02*
X217009524Y-103854819D01*
X217009524Y-103854819D02*
X217247619Y-103854819D01*
X217247619Y-103854819D02*
X217342857Y-103807200D01*
X217342857Y-103807200D02*
X217390476Y-103759580D01*
X217390476Y-103759580D02*
X217438095Y-103664342D01*
X217438095Y-103664342D02*
X217438095Y-103569104D01*
X217438095Y-103569104D02*
X217390476Y-103473866D01*
X217390476Y-103473866D02*
X217342857Y-103426247D01*
X217342857Y-103426247D02*
X217247619Y-103378628D01*
X217247619Y-103378628D02*
X217057143Y-103331009D01*
X217057143Y-103331009D02*
X216961905Y-103283390D01*
X216961905Y-103283390D02*
X216914286Y-103235771D01*
X216914286Y-103235771D02*
X216866667Y-103140533D01*
X216866667Y-103140533D02*
X216866667Y-103045295D01*
X216866667Y-103045295D02*
X216914286Y-102950057D01*
X216914286Y-102950057D02*
X216961905Y-102902438D01*
X216961905Y-102902438D02*
X217057143Y-102854819D01*
X217057143Y-102854819D02*
X217295238Y-102854819D01*
X217295238Y-102854819D02*
X217438095Y-102902438D01*
X217771429Y-102854819D02*
X218009524Y-103854819D01*
X218009524Y-103854819D02*
X218200000Y-103140533D01*
X218200000Y-103140533D02*
X218390476Y-103854819D01*
X218390476Y-103854819D02*
X218628572Y-102854819D01*
X219438095Y-103188152D02*
X219438095Y-103854819D01*
X219200000Y-102807200D02*
X218961905Y-103521485D01*
X218961905Y-103521485D02*
X219580952Y-103521485D01*
X185486667Y-101733200D02*
X185629524Y-101780819D01*
X185629524Y-101780819D02*
X185867619Y-101780819D01*
X185867619Y-101780819D02*
X185962857Y-101733200D01*
X185962857Y-101733200D02*
X186010476Y-101685580D01*
X186010476Y-101685580D02*
X186058095Y-101590342D01*
X186058095Y-101590342D02*
X186058095Y-101495104D01*
X186058095Y-101495104D02*
X186010476Y-101399866D01*
X186010476Y-101399866D02*
X185962857Y-101352247D01*
X185962857Y-101352247D02*
X185867619Y-101304628D01*
X185867619Y-101304628D02*
X185677143Y-101257009D01*
X185677143Y-101257009D02*
X185581905Y-101209390D01*
X185581905Y-101209390D02*
X185534286Y-101161771D01*
X185534286Y-101161771D02*
X185486667Y-101066533D01*
X185486667Y-101066533D02*
X185486667Y-100971295D01*
X185486667Y-100971295D02*
X185534286Y-100876057D01*
X185534286Y-100876057D02*
X185581905Y-100828438D01*
X185581905Y-100828438D02*
X185677143Y-100780819D01*
X185677143Y-100780819D02*
X185915238Y-100780819D01*
X185915238Y-100780819D02*
X186058095Y-100828438D01*
X186391429Y-100780819D02*
X186629524Y-101780819D01*
X186629524Y-101780819D02*
X186820000Y-101066533D01*
X186820000Y-101066533D02*
X187010476Y-101780819D01*
X187010476Y-101780819D02*
X187248572Y-100780819D01*
X188105714Y-100780819D02*
X187629524Y-100780819D01*
X187629524Y-100780819D02*
X187581905Y-101257009D01*
X187581905Y-101257009D02*
X187629524Y-101209390D01*
X187629524Y-101209390D02*
X187724762Y-101161771D01*
X187724762Y-101161771D02*
X187962857Y-101161771D01*
X187962857Y-101161771D02*
X188058095Y-101209390D01*
X188058095Y-101209390D02*
X188105714Y-101257009D01*
X188105714Y-101257009D02*
X188153333Y-101352247D01*
X188153333Y-101352247D02*
X188153333Y-101590342D01*
X188153333Y-101590342D02*
X188105714Y-101685580D01*
X188105714Y-101685580D02*
X188058095Y-101733200D01*
X188058095Y-101733200D02*
X187962857Y-101780819D01*
X187962857Y-101780819D02*
X187724762Y-101780819D01*
X187724762Y-101780819D02*
X187629524Y-101733200D01*
X187629524Y-101733200D02*
X187581905Y-101685580D01*
X217016667Y-73607200D02*
X217159524Y-73654819D01*
X217159524Y-73654819D02*
X217397619Y-73654819D01*
X217397619Y-73654819D02*
X217492857Y-73607200D01*
X217492857Y-73607200D02*
X217540476Y-73559580D01*
X217540476Y-73559580D02*
X217588095Y-73464342D01*
X217588095Y-73464342D02*
X217588095Y-73369104D01*
X217588095Y-73369104D02*
X217540476Y-73273866D01*
X217540476Y-73273866D02*
X217492857Y-73226247D01*
X217492857Y-73226247D02*
X217397619Y-73178628D01*
X217397619Y-73178628D02*
X217207143Y-73131009D01*
X217207143Y-73131009D02*
X217111905Y-73083390D01*
X217111905Y-73083390D02*
X217064286Y-73035771D01*
X217064286Y-73035771D02*
X217016667Y-72940533D01*
X217016667Y-72940533D02*
X217016667Y-72845295D01*
X217016667Y-72845295D02*
X217064286Y-72750057D01*
X217064286Y-72750057D02*
X217111905Y-72702438D01*
X217111905Y-72702438D02*
X217207143Y-72654819D01*
X217207143Y-72654819D02*
X217445238Y-72654819D01*
X217445238Y-72654819D02*
X217588095Y-72702438D01*
X217921429Y-72654819D02*
X218159524Y-73654819D01*
X218159524Y-73654819D02*
X218350000Y-72940533D01*
X218350000Y-72940533D02*
X218540476Y-73654819D01*
X218540476Y-73654819D02*
X218778572Y-72654819D01*
X219064286Y-72654819D02*
X219683333Y-72654819D01*
X219683333Y-72654819D02*
X219350000Y-73035771D01*
X219350000Y-73035771D02*
X219492857Y-73035771D01*
X219492857Y-73035771D02*
X219588095Y-73083390D01*
X219588095Y-73083390D02*
X219635714Y-73131009D01*
X219635714Y-73131009D02*
X219683333Y-73226247D01*
X219683333Y-73226247D02*
X219683333Y-73464342D01*
X219683333Y-73464342D02*
X219635714Y-73559580D01*
X219635714Y-73559580D02*
X219588095Y-73607200D01*
X219588095Y-73607200D02*
X219492857Y-73654819D01*
X219492857Y-73654819D02*
X219207143Y-73654819D01*
X219207143Y-73654819D02*
X219111905Y-73607200D01*
X219111905Y-73607200D02*
X219064286Y-73559580D01*
X158354819Y-84508094D02*
X157354819Y-84508094D01*
X157354819Y-84508094D02*
X157354819Y-84269999D01*
X157354819Y-84269999D02*
X157402438Y-84127142D01*
X157402438Y-84127142D02*
X157497676Y-84031904D01*
X157497676Y-84031904D02*
X157592914Y-83984285D01*
X157592914Y-83984285D02*
X157783390Y-83936666D01*
X157783390Y-83936666D02*
X157926247Y-83936666D01*
X157926247Y-83936666D02*
X158116723Y-83984285D01*
X158116723Y-83984285D02*
X158211961Y-84031904D01*
X158211961Y-84031904D02*
X158307200Y-84127142D01*
X158307200Y-84127142D02*
X158354819Y-84269999D01*
X158354819Y-84269999D02*
X158354819Y-84508094D01*
X157450057Y-83555713D02*
X157402438Y-83508094D01*
X157402438Y-83508094D02*
X157354819Y-83412856D01*
X157354819Y-83412856D02*
X157354819Y-83174761D01*
X157354819Y-83174761D02*
X157402438Y-83079523D01*
X157402438Y-83079523D02*
X157450057Y-83031904D01*
X157450057Y-83031904D02*
X157545295Y-82984285D01*
X157545295Y-82984285D02*
X157640533Y-82984285D01*
X157640533Y-82984285D02*
X157783390Y-83031904D01*
X157783390Y-83031904D02*
X158354819Y-83603332D01*
X158354819Y-83603332D02*
X158354819Y-82984285D01*
X158034819Y-80221904D02*
X157034819Y-80221904D01*
X158034819Y-79650476D02*
X157463390Y-80079047D01*
X157034819Y-79650476D02*
X157606247Y-80221904D01*
X184910476Y-73193200D02*
X185053333Y-73240819D01*
X185053333Y-73240819D02*
X185291428Y-73240819D01*
X185291428Y-73240819D02*
X185386666Y-73193200D01*
X185386666Y-73193200D02*
X185434285Y-73145580D01*
X185434285Y-73145580D02*
X185481904Y-73050342D01*
X185481904Y-73050342D02*
X185481904Y-72955104D01*
X185481904Y-72955104D02*
X185434285Y-72859866D01*
X185434285Y-72859866D02*
X185386666Y-72812247D01*
X185386666Y-72812247D02*
X185291428Y-72764628D01*
X185291428Y-72764628D02*
X185100952Y-72717009D01*
X185100952Y-72717009D02*
X185005714Y-72669390D01*
X185005714Y-72669390D02*
X184958095Y-72621771D01*
X184958095Y-72621771D02*
X184910476Y-72526533D01*
X184910476Y-72526533D02*
X184910476Y-72431295D01*
X184910476Y-72431295D02*
X184958095Y-72336057D01*
X184958095Y-72336057D02*
X185005714Y-72288438D01*
X185005714Y-72288438D02*
X185100952Y-72240819D01*
X185100952Y-72240819D02*
X185339047Y-72240819D01*
X185339047Y-72240819D02*
X185481904Y-72288438D01*
X185815238Y-72240819D02*
X186053333Y-73240819D01*
X186053333Y-73240819D02*
X186243809Y-72526533D01*
X186243809Y-72526533D02*
X186434285Y-73240819D01*
X186434285Y-73240819D02*
X186672381Y-72240819D01*
X187577142Y-73240819D02*
X187005714Y-73240819D01*
X187291428Y-73240819D02*
X187291428Y-72240819D01*
X187291428Y-72240819D02*
X187196190Y-72383676D01*
X187196190Y-72383676D02*
X187100952Y-72478914D01*
X187100952Y-72478914D02*
X187005714Y-72526533D01*
X188529523Y-73240819D02*
X187958095Y-73240819D01*
X188243809Y-73240819D02*
X188243809Y-72240819D01*
X188243809Y-72240819D02*
X188148571Y-72383676D01*
X188148571Y-72383676D02*
X188053333Y-72478914D01*
X188053333Y-72478914D02*
X187958095Y-72526533D01*
X174945180Y-140928095D02*
X174135657Y-140928095D01*
X174135657Y-140928095D02*
X174040419Y-140975714D01*
X174040419Y-140975714D02*
X173992800Y-141023333D01*
X173992800Y-141023333D02*
X173945180Y-141118571D01*
X173945180Y-141118571D02*
X173945180Y-141309047D01*
X173945180Y-141309047D02*
X173992800Y-141404285D01*
X173992800Y-141404285D02*
X174040419Y-141451904D01*
X174040419Y-141451904D02*
X174135657Y-141499523D01*
X174135657Y-141499523D02*
X174945180Y-141499523D01*
X174611847Y-142404285D02*
X173945180Y-142404285D01*
X174992800Y-142166190D02*
X174278514Y-141928095D01*
X174278514Y-141928095D02*
X174278514Y-142547142D01*
%TO.C,SW10*%
D12*
X138635000Y-72975000D02*
X152605000Y-72975000D01*
X138635000Y-86945000D02*
X138635000Y-72975000D01*
X152605000Y-72975000D02*
X152605000Y-86945000D01*
X152605000Y-86945000D02*
X138635000Y-86945000D01*
%TO.C,D7*%
X116380000Y-141640000D02*
X116380000Y-142290000D01*
X116380000Y-147180000D02*
X116380000Y-146530000D01*
X117500000Y-142890000D02*
X115260000Y-142890000D01*
X117500000Y-143010000D02*
X115260000Y-143010000D01*
X117500000Y-143130000D02*
X115260000Y-143130000D01*
X115260000Y-142290000D02*
X117500000Y-142290000D01*
X117500000Y-146530000D01*
X115260000Y-146530000D01*
X115260000Y-142290000D01*
%TO.C,D5*%
X155970000Y-110200000D02*
X155970000Y-110850000D01*
X155970000Y-115740000D02*
X155970000Y-115090000D01*
X157090000Y-111450000D02*
X154850000Y-111450000D01*
X157090000Y-111570000D02*
X154850000Y-111570000D01*
X157090000Y-111690000D02*
X154850000Y-111690000D01*
X154850000Y-110850000D02*
X157090000Y-110850000D01*
X157090000Y-115090000D01*
X154850000Y-115090000D01*
X154850000Y-110850000D01*
%TO.C,U5*%
D13*
X197175000Y-132420000D02*
X197175000Y-149420000D01*
X199175000Y-151419090D02*
X212975000Y-151419090D01*
X201575000Y-145490730D02*
X210575000Y-145490730D01*
X201575000Y-152844030D02*
X201575000Y-145490730D01*
X210575000Y-145490730D02*
X210575000Y-152844030D01*
X210575000Y-152844030D02*
X201575000Y-152844030D01*
X212975000Y-130420000D02*
X199175000Y-130420000D01*
X214975000Y-149420000D02*
X214975000Y-132420000D01*
D12*
X197175000Y-132420000D02*
G75*
G02*
X199175000Y-130420000I2000000J0D01*
G01*
X199175000Y-151420000D02*
G75*
G02*
X197175000Y-149420000I44610J2044610D01*
G01*
X212975000Y-130420000D02*
G75*
G02*
X214975000Y-132420000I-44857J-2044857D01*
G01*
X214975000Y-149420000D02*
G75*
G02*
X212975000Y-151420000I-2044612J44612D01*
G01*
D14*
X217202000Y-149720000D02*
G75*
G02*
X216948000Y-149720000I-127000J0D01*
G01*
X216948000Y-149720000D02*
G75*
G02*
X217202000Y-149720000I127000J0D01*
G01*
D15*
X214962715Y-149481705D02*
X214959667Y-149530473D01*
X214955603Y-149579494D01*
X214962715Y-149481705D01*
X197185508Y-132398426D02*
X197187287Y-132349150D01*
X197190335Y-132300382D01*
X197194399Y-132251361D01*
X197199732Y-132202593D01*
X197206336Y-132153825D01*
X197213956Y-132105310D01*
X197222847Y-132057050D01*
X197232752Y-132009045D01*
X197185508Y-132398426D01*
%TO.C,D6*%
D12*
X196800000Y-109530000D02*
X196800000Y-110180000D01*
X196800000Y-115070000D02*
X196800000Y-114420000D01*
X197920000Y-110780000D02*
X195680000Y-110780000D01*
X197920000Y-110900000D02*
X195680000Y-110900000D01*
X197920000Y-111020000D02*
X195680000Y-111020000D01*
X195680000Y-110180000D02*
X197920000Y-110180000D01*
X197920000Y-114420000D01*
X195680000Y-114420000D01*
X195680000Y-110180000D01*
%TO.C,SW9*%
X99535000Y-73415000D02*
X113505000Y-73415000D01*
X99535000Y-87385000D02*
X99535000Y-73415000D01*
X113505000Y-73415000D02*
X113505000Y-87385000D01*
X113505000Y-87385000D02*
X99535000Y-87385000D01*
%TO.C,D1*%
X116680000Y-81440000D02*
X116680000Y-82090000D01*
X116680000Y-86980000D02*
X116680000Y-86330000D01*
X117800000Y-82690000D02*
X115560000Y-82690000D01*
X117800000Y-82810000D02*
X115560000Y-82810000D01*
X117800000Y-82930000D02*
X115560000Y-82930000D01*
X115560000Y-82090000D02*
X117800000Y-82090000D01*
X117800000Y-86330000D01*
X115560000Y-86330000D01*
X115560000Y-82090000D01*
%TO.C,SW7*%
X224950000Y-130250000D02*
X224950000Y-134750000D01*
X227450000Y-136000000D02*
X228950000Y-136000000D01*
X228950000Y-129000000D02*
X227450000Y-129000000D01*
X231450000Y-134750000D02*
X231450000Y-130250000D01*
%TO.C,SW6*%
X99235000Y-133615000D02*
X113205000Y-133615000D01*
X99235000Y-147585000D02*
X99235000Y-133615000D01*
X113205000Y-133615000D02*
X113205000Y-147585000D01*
X113205000Y-147585000D02*
X99235000Y-147585000D01*
%TO.C,D3*%
X196900000Y-80520000D02*
X196900000Y-81170000D01*
X196900000Y-86060000D02*
X196900000Y-85410000D01*
X198020000Y-81770000D02*
X195780000Y-81770000D01*
X198020000Y-81890000D02*
X195780000Y-81890000D01*
X198020000Y-82010000D02*
X195780000Y-82010000D01*
X195780000Y-81170000D02*
X198020000Y-81170000D01*
X198020000Y-85410000D01*
X195780000Y-85410000D01*
X195780000Y-81170000D01*
%TO.C,D4*%
X116680000Y-110740000D02*
X116680000Y-111390000D01*
X116680000Y-116280000D02*
X116680000Y-115630000D01*
X117800000Y-111990000D02*
X115560000Y-111990000D01*
X117800000Y-112110000D02*
X115560000Y-112110000D01*
X117800000Y-112230000D02*
X115560000Y-112230000D01*
X115560000Y-111390000D02*
X117800000Y-111390000D01*
X117800000Y-115630000D01*
X115560000Y-115630000D01*
X115560000Y-111390000D01*
%TO.C,SW1*%
X99535000Y-102715000D02*
X113505000Y-102715000D01*
X99535000Y-116685000D02*
X99535000Y-102715000D01*
X113505000Y-102715000D02*
X113505000Y-116685000D01*
X113505000Y-116685000D02*
X99535000Y-116685000D01*
%TO.C,SW8*%
X224550000Y-149150000D02*
X224550000Y-153650000D01*
X227050000Y-154900000D02*
X228550000Y-154900000D01*
X228550000Y-147900000D02*
X227050000Y-147900000D01*
X231050000Y-153650000D02*
X231050000Y-149150000D01*
%TO.C,SW2*%
X138825000Y-102175000D02*
X152795000Y-102175000D01*
X138825000Y-116145000D02*
X138825000Y-102175000D01*
X152795000Y-102175000D02*
X152795000Y-116145000D01*
X152795000Y-116145000D02*
X138825000Y-116145000D01*
%TO.C,SW4*%
X215100000Y-106500000D02*
X215700000Y-106500000D01*
X215400000Y-106800000D02*
X215100000Y-106500000D01*
X215700000Y-106500000D02*
X215400000Y-106800000D01*
X216800000Y-104700000D02*
X216800000Y-116500000D01*
X220900000Y-104700000D02*
X216800000Y-104700000D01*
X220900000Y-116500000D02*
X216800000Y-116500000D01*
X222400000Y-110600000D02*
X223400000Y-110600000D01*
X222900000Y-110100000D02*
X222900000Y-111100000D01*
X224900000Y-104700000D02*
X229000000Y-104700000D01*
X229000000Y-104700000D02*
X229000000Y-107100000D01*
X229000000Y-109300000D02*
X229000000Y-111900000D01*
X229000000Y-114100000D02*
X229000000Y-116500000D01*
X229000000Y-116500000D02*
X224900000Y-116500000D01*
X225900000Y-110600000D02*
G75*
G02*
X219900000Y-110600000I-3000000J0D01*
G01*
X219900000Y-110600000D02*
G75*
G02*
X225900000Y-110600000I3000000J0D01*
G01*
%TO.C,SW5*%
X179835000Y-102215000D02*
X193805000Y-102215000D01*
X179835000Y-116185000D02*
X179835000Y-102215000D01*
X193805000Y-102215000D02*
X193805000Y-116185000D01*
X193805000Y-116185000D02*
X179835000Y-116185000D01*
%TO.C,SW3*%
X215250000Y-76300000D02*
X215850000Y-76300000D01*
X215550000Y-76600000D02*
X215250000Y-76300000D01*
X215850000Y-76300000D02*
X215550000Y-76600000D01*
X216950000Y-74500000D02*
X216950000Y-86300000D01*
X221050000Y-74500000D02*
X216950000Y-74500000D01*
X221050000Y-86300000D02*
X216950000Y-86300000D01*
X222550000Y-80400000D02*
X223550000Y-80400000D01*
X223050000Y-79900000D02*
X223050000Y-80900000D01*
X225050000Y-74500000D02*
X229150000Y-74500000D01*
X229150000Y-74500000D02*
X229150000Y-76900000D01*
X229150000Y-79100000D02*
X229150000Y-81700000D01*
X229150000Y-83900000D02*
X229150000Y-86300000D01*
X229150000Y-86300000D02*
X225050000Y-86300000D01*
X226050000Y-80400000D02*
G75*
G02*
X220050000Y-80400000I-3000000J0D01*
G01*
X220050000Y-80400000D02*
G75*
G02*
X226050000Y-80400000I3000000J0D01*
G01*
%TO.C,D2*%
X155780000Y-81000000D02*
X155780000Y-81650000D01*
X155780000Y-86540000D02*
X155780000Y-85890000D01*
X156900000Y-82250000D02*
X154660000Y-82250000D01*
X156900000Y-82370000D02*
X154660000Y-82370000D01*
X156900000Y-82490000D02*
X154660000Y-82490000D01*
X154660000Y-81650000D02*
X156900000Y-81650000D01*
X156900000Y-85890000D01*
X154660000Y-85890000D01*
X154660000Y-81650000D01*
%TO.C,SW11*%
X179735000Y-73675000D02*
X193705000Y-73675000D01*
X179735000Y-87645000D02*
X179735000Y-73675000D01*
X193705000Y-73675000D02*
X193705000Y-87645000D01*
X193705000Y-87645000D02*
X179735000Y-87645000D01*
%TO.C,U4*%
X170520000Y-137690000D02*
X170520000Y-136310000D01*
X171900000Y-136310000D02*
X170520000Y-136310000D01*
X135400000Y-135500000D02*
X173400000Y-135500000D01*
X173400000Y-147500000D01*
X135400000Y-147500000D01*
X135400000Y-135500000D01*
%TD*%
M02*
