%TF.GenerationSoftware,KiCad,Pcbnew,10.0.6*%
%TF.CreationDate,2026-09-20T20:50:56+05:30*%
%TF.ProjectId,PCB,5043422e-6b69-4636-9164-5f7063625858,rev?*%
%TF.SameCoordinates,Original*%
%TF.FileFunction,Soldermask,Bot*%
%TF.FilePolarity,Negative*%
%FSLAX46Y46*%
G04 Gerber Fmt 4.6, Leading zero omitted, Abs format (unit mm)*
G04 Created by KiCad (PCBNEW 10.0.6) date 2026-09-20 20:50:56*
%MOMM*%
%LPD*%
G01*
G04 APERTURE LIST*
G04 Aperture macros list*
%AMRoundRect*
0 Rectangle with rounded corners*
0 $1 Rounding radius*
0 $2 $3 $4 $5 $6 $7 $8 $9 X,Y pos of 4 corners*
0 Add a 4 corners polygon primitive as box body*
4,1,4,$2,$3,$4,$5,$6,$7,$8,$9,$2,$3,0*
0 Add four circle primitives for the rounded corners*
1,1,$1+$1,$2,$3*
1,1,$1+$1,$4,$5*
1,1,$1+$1,$6,$7*
1,1,$1+$1,$8,$9*
0 Add four rect primitives between the rounded corners*
20,1,$1+$1,$2,$3,$4,$5,0*
20,1,$1+$1,$4,$5,$6,$7,0*
20,1,$1+$1,$6,$7,$8,$9,0*
20,1,$1+$1,$8,$9,$2,$3,0*%
G04 Aperture macros list end*
%ADD10R,2.000000X2.000000*%
%ADD11C,2.000000*%
%ADD12R,3.200000X2.000000*%
%ADD13RoundRect,0.170000X-0.680000X-0.680000X0.680000X-0.680000X0.680000X0.680000X-0.680000X0.680000X0*%
%ADD14C,1.700000*%
%ADD15R,3.500000X1.700000*%
%ADD16O,3.600000X1.700000*%
%ADD17O,3.700000X1.700000*%
%ADD18C,4.000000*%
%ADD19C,2.200000*%
%ADD20C,1.600000*%
%ADD21RoundRect,0.250000X-0.550000X0.550000X-0.550000X-0.550000X0.550000X-0.550000X0.550000X0.550000X0*%
G04 APERTURE END LIST*
D10*
%TO.C,SW3*%
X111830000Y-77500000D03*
D11*
X111830000Y-82500000D03*
X111830000Y-80000000D03*
D12*
X119330000Y-74400000D03*
X119330000Y-85600000D03*
D11*
X126330000Y-82500000D03*
X126330000Y-77500000D03*
%TD*%
D13*
%TO.C,U4*%
X137160000Y-53400000D03*
D14*
X139700000Y-53400000D03*
X142240000Y-53400000D03*
X144780000Y-53400000D03*
%TD*%
D11*
%TO.C,SW7*%
X151130000Y-83820000D03*
X151130000Y-77320000D03*
X155630000Y-83820000D03*
X155630000Y-77320000D03*
%TD*%
%TO.C,SW8*%
X151130000Y-67460000D03*
X151130000Y-60960000D03*
X155630000Y-67460000D03*
X155630000Y-60960000D03*
%TD*%
D10*
%TO.C,SW4*%
X111030000Y-98500000D03*
D11*
X111030000Y-103500000D03*
X111030000Y-101000000D03*
D12*
X118530000Y-95400000D03*
X118530000Y-106600000D03*
D11*
X125530000Y-103500000D03*
X125530000Y-98500000D03*
%TD*%
D15*
%TO.C,U5*%
X150860000Y-112600000D03*
D16*
X150860000Y-110060000D03*
X150860000Y-107520000D03*
X150860000Y-104980000D03*
X150860000Y-102440000D03*
X150860000Y-99900000D03*
X150860000Y-97360000D03*
X133610000Y-97360000D03*
X133610000Y-99900000D03*
X133610000Y-102440000D03*
D17*
X133610000Y-104980000D03*
X133610000Y-107520000D03*
X133610000Y-110060000D03*
X133610000Y-112600000D03*
%TD*%
D14*
%TO.C,SW6*%
X114300000Y-60500000D03*
D18*
X119380000Y-60500000D03*
D14*
X124460000Y-60500000D03*
D19*
X121920000Y-55420000D03*
X115570000Y-57960000D03*
%TD*%
%TO.C,SW5*%
X91340000Y-98860000D03*
X97690000Y-96320000D03*
D14*
X100230000Y-101400000D03*
D18*
X95150000Y-101400000D03*
D14*
X90070000Y-101400000D03*
%TD*%
%TO.C,SW1*%
X90170000Y-60400000D03*
D18*
X95250000Y-60400000D03*
D14*
X100330000Y-60400000D03*
D19*
X97790000Y-55320000D03*
X91440000Y-57860000D03*
%TD*%
D14*
%TO.C,SW2*%
X90060000Y-80640000D03*
D18*
X95140000Y-80640000D03*
D14*
X100220000Y-80640000D03*
D19*
X97680000Y-75560000D03*
X91330000Y-78100000D03*
%TD*%
D20*
%TO.C,D6*%
X105130000Y-108310000D03*
D21*
X105130000Y-100690000D03*
%TD*%
%TO.C,D5*%
X105300000Y-80640000D03*
D20*
X105300000Y-88260000D03*
%TD*%
D21*
%TO.C,D4*%
X105410000Y-60400000D03*
D20*
X105410000Y-68020000D03*
%TD*%
%TO.C,D7*%
X129540000Y-68120000D03*
D21*
X129540000Y-60500000D03*
%TD*%
D14*
%TO.C,SW10*%
X66430000Y-80840000D03*
D18*
X71510000Y-80840000D03*
D14*
X76590000Y-80840000D03*
D19*
X74050000Y-75760000D03*
X67700000Y-78300000D03*
%TD*%
D14*
%TO.C,SW9*%
X66330000Y-60440000D03*
D18*
X71410000Y-60440000D03*
D14*
X76490000Y-60440000D03*
D19*
X73950000Y-55360000D03*
X67600000Y-57900000D03*
%TD*%
D21*
%TO.C,D1*%
X81570000Y-60440000D03*
D20*
X81570000Y-68060000D03*
%TD*%
D21*
%TO.C,D3*%
X81290000Y-100360000D03*
D20*
X81290000Y-107980000D03*
%TD*%
D21*
%TO.C,D2*%
X81670000Y-80840000D03*
D20*
X81670000Y-88460000D03*
%TD*%
D14*
%TO.C,SW11*%
X66030000Y-101540000D03*
D18*
X71110000Y-101540000D03*
D14*
X76190000Y-101540000D03*
D19*
X73650000Y-96460000D03*
X67300000Y-99000000D03*
%TD*%
M02*
