M48
; DRILL file KiCad 10.0.6 date 2026-09-20T19:01:19
; FORMAT={-:-/ absolute / metric / decimal}
; #@! TF.CreationDate,2026-09-20T19:01:19+05:30
; #@! TF.GenerationSoftware,Kicad,Pcbnew,10.0.6
; #@! TF.FileFunction,Plated,1,2,PTH
FMAT,2
METRIC
; #@! TA.AperFunction,Plated,PTH,ComponentDrill
T1C0.800
; #@! TA.AperFunction,Plated,PTH,ComponentDrill
T2C1.000
; #@! TA.AperFunction,Plated,PTH,ComponentDrill
T3C1.100
; #@! TA.AperFunction,Plated,PTH,ComponentDrill
T4C1.500
%
G90
G05
T1
X116.38Y-140.6
X116.38Y-148.22
X116.68Y-80.4
X116.68Y-88.02
X116.68Y-109.7
X116.68Y-117.32
X155.78Y-79.96
X155.78Y-87.58
X155.97Y-109.16
X155.97Y-116.78
X196.8Y-108.49
X196.8Y-116.11
X196.9Y-79.48
X196.9Y-87.1
T2
X171.9Y-137.69
X171.9Y-140.23
X171.9Y-142.77
X171.9Y-145.31
X198.45Y-133.3
X198.45Y-135.84
X198.45Y-138.38
X198.45Y-140.92
X198.45Y-143.46
X198.45Y-146.0
X198.45Y-148.54
X213.7Y-133.3
X213.7Y-135.84
X213.7Y-138.38
X213.7Y-140.92
X213.7Y-143.46
X213.7Y-146.0
X213.7Y-148.54
X215.4Y-108.1
X215.4Y-110.6
X215.4Y-113.1
X215.55Y-77.9
X215.55Y-80.4
X215.55Y-82.9
X229.9Y-108.1
X229.9Y-113.1
X230.05Y-77.9
X230.05Y-82.9
T3
X225.55Y-148.15
X225.55Y-154.65
X225.95Y-129.25
X225.95Y-135.75
X230.05Y-148.15
X230.05Y-154.65
X230.45Y-129.25
X230.45Y-135.75
T4
X102.41Y-138.06
X102.71Y-77.86
X102.71Y-107.16
X108.76Y-135.52
X109.06Y-75.32
X109.06Y-104.62
X141.81Y-77.42
X142.0Y-106.62
X148.16Y-74.88
X148.35Y-104.08
X182.91Y-78.12
X183.01Y-106.66
X189.26Y-75.58
X189.36Y-104.12
T4
G00X222.25Y-105.0
M15
G01X223.55Y-105.0
M16
G05
G00X222.25Y-116.2
M15
G01X223.55Y-116.2
M16
G05
G00X222.4Y-74.8
M15
G01X223.7Y-74.8
M16
G05
G00X222.4Y-86.0
M15
G01X223.7Y-86.0
M16
G05
M30
