%TF.GenerationSoftware,KiCad,Pcbnew,10.0.6*%
%TF.CreationDate,2026-09-20T19:14:55+05:30*%
%TF.ProjectId,PCB,5043422e-6b69-4636-9164-5f7063625858,rev?*%
%TF.SameCoordinates,Original*%
%TF.FileFunction,Soldermask,Top*%
%TF.FilePolarity,Negative*%
%FSLAX46Y46*%
G04 Gerber Fmt 4.6, Leading zero omitted, Abs format (unit mm)*
G04 Created by KiCad (PCBNEW 10.0.6) date 2026-09-20 19:14:55*
%MOMM*%
%LPD*%
G01*
G04 APERTURE LIST*
G04 Aperture macros list*
%AMRoundRect*
0 Rectangle with rounded corners*
0 $1 Rounding radius*
0 $2 $3 $4 $5 $6 $7 $8 $9 X,Y pos of 4 corners*
0 Add a 4 corners polygon primitive as box body*
4,1,4,$2,$3,$4,$5,$6,$7,$8,$9,$2,$3,0*
0 Add four circle primitives for the rounded corners*
1,1,$1+$1,$2,$3*
1,1,$1+$1,$4,$5*
1,1,$1+$1,$6,$7*
1,1,$1+$1,$8,$9*
0 Add four rect primitives between the rounded corners*
20,1,$1+$1,$2,$3,$4,$5,0*
20,1,$1+$1,$4,$5,$6,$7,0*
20,1,$1+$1,$6,$7,$8,$9,0*
20,1,$1+$1,$8,$9,$2,$3,0*%
G04 Aperture macros list end*
%ADD10C,1.700000*%
%ADD11C,4.000000*%
%ADD12C,2.200000*%
%ADD13RoundRect,0.250000X-0.550000X0.550000X-0.550000X-0.550000X0.550000X-0.550000X0.550000X0.550000X0*%
%ADD14C,1.600000*%
%ADD15R,3.500000X1.700000*%
%ADD16O,3.600000X1.700000*%
%ADD17O,3.700000X1.700000*%
%ADD18C,2.000000*%
%ADD19R,2.000000X2.000000*%
%ADD20R,3.200000X2.000000*%
%ADD21RoundRect,0.170000X-0.680000X0.680000X-0.680000X-0.680000X0.680000X-0.680000X0.680000X0.680000X0*%
G04 APERTURE END LIST*
D10*
%TO.C,SW10*%
X140540000Y-79960000D03*
D11*
X145620000Y-79960000D03*
D10*
X150700000Y-79960000D03*
D12*
X148160000Y-74880000D03*
X141810000Y-77420000D03*
%TD*%
D13*
%TO.C,D7*%
X116380000Y-140600000D03*
D14*
X116380000Y-148220000D03*
%TD*%
D13*
%TO.C,D5*%
X155970000Y-109160000D03*
D14*
X155970000Y-116780000D03*
%TD*%
D15*
%TO.C,U5*%
X214700000Y-148540000D03*
D16*
X214700000Y-146000000D03*
X214700000Y-143460000D03*
X214700000Y-140920000D03*
X214700000Y-138380000D03*
X214700000Y-135840000D03*
X214700000Y-133300000D03*
X197450000Y-133300000D03*
X197450000Y-135840000D03*
X197450000Y-138380000D03*
D17*
X197450000Y-140920000D03*
X197450000Y-143460000D03*
X197450000Y-146000000D03*
X197450000Y-148540000D03*
%TD*%
D13*
%TO.C,D6*%
X196800000Y-108490000D03*
D14*
X196800000Y-116110000D03*
%TD*%
D10*
%TO.C,SW9*%
X101440000Y-80400000D03*
D11*
X106520000Y-80400000D03*
D10*
X111600000Y-80400000D03*
D12*
X109060000Y-75320000D03*
X102710000Y-77860000D03*
%TD*%
D13*
%TO.C,D1*%
X116680000Y-80400000D03*
D14*
X116680000Y-88020000D03*
%TD*%
D18*
%TO.C,SW7*%
X230450000Y-129250000D03*
X230450000Y-135750000D03*
X225950000Y-129250000D03*
X225950000Y-135750000D03*
%TD*%
D10*
%TO.C,SW6*%
X101140000Y-140600000D03*
D11*
X106220000Y-140600000D03*
D10*
X111300000Y-140600000D03*
D12*
X108760000Y-135520000D03*
X102410000Y-138060000D03*
%TD*%
D13*
%TO.C,D3*%
X196900000Y-79480000D03*
D14*
X196900000Y-87100000D03*
%TD*%
D13*
%TO.C,D4*%
X116680000Y-109700000D03*
D14*
X116680000Y-117320000D03*
%TD*%
D10*
%TO.C,SW1*%
X101440000Y-109700000D03*
D11*
X106520000Y-109700000D03*
D10*
X111600000Y-109700000D03*
D12*
X109060000Y-104620000D03*
X102710000Y-107160000D03*
%TD*%
D18*
%TO.C,SW8*%
X230050000Y-148150000D03*
X230050000Y-154650000D03*
X225550000Y-148150000D03*
X225550000Y-154650000D03*
%TD*%
D10*
%TO.C,SW2*%
X140730000Y-109160000D03*
D11*
X145810000Y-109160000D03*
D10*
X150890000Y-109160000D03*
D12*
X148350000Y-104080000D03*
X142000000Y-106620000D03*
%TD*%
D19*
%TO.C,SW4*%
X215400000Y-108100000D03*
D18*
X215400000Y-113100000D03*
X215400000Y-110600000D03*
D20*
X222900000Y-105000000D03*
X222900000Y-116200000D03*
D18*
X229900000Y-113100000D03*
X229900000Y-108100000D03*
%TD*%
D10*
%TO.C,SW5*%
X181740000Y-109200000D03*
D11*
X186820000Y-109200000D03*
D10*
X191900000Y-109200000D03*
D12*
X189360000Y-104120000D03*
X183010000Y-106660000D03*
%TD*%
D19*
%TO.C,SW3*%
X215550000Y-77900000D03*
D18*
X215550000Y-82900000D03*
X215550000Y-80400000D03*
D20*
X223050000Y-74800000D03*
X223050000Y-86000000D03*
D18*
X230050000Y-82900000D03*
X230050000Y-77900000D03*
%TD*%
D13*
%TO.C,D2*%
X155780000Y-79960000D03*
D14*
X155780000Y-87580000D03*
%TD*%
D10*
%TO.C,SW11*%
X181640000Y-80660000D03*
D11*
X186720000Y-80660000D03*
D10*
X191800000Y-80660000D03*
D12*
X189260000Y-75580000D03*
X182910000Y-78120000D03*
%TD*%
D21*
%TO.C,U4*%
X171900000Y-137690000D03*
D10*
X171900000Y-140230000D03*
X171900000Y-142770000D03*
X171900000Y-145310000D03*
%TD*%
M02*
