%TF.GenerationSoftware,KiCad,Pcbnew,10.0.6*%
%TF.CreationDate,2026-09-20T19:14:55+05:30*%
%TF.ProjectId,PCB,5043422e-6b69-4636-9164-5f7063625858,rev?*%
%TF.SameCoordinates,Original*%
%TF.FileFunction,Copper,L2,Bot*%
%TF.FilePolarity,Positive*%
%FSLAX46Y46*%
G04 Gerber Fmt 4.6, Leading zero omitted, Abs format (unit mm)*
G04 Created by KiCad (PCBNEW 10.0.6) date 2026-09-20 19:14:55*
%MOMM*%
%LPD*%
G01*
G04 APERTURE LIST*
G04 Aperture macros list*
%AMRoundRect*
0 Rectangle with rounded corners*
0 $1 Rounding radius*
0 $2 $3 $4 $5 $6 $7 $8 $9 X,Y pos of 4 corners*
0 Add a 4 corners polygon primitive as box body*
4,1,4,$2,$3,$4,$5,$6,$7,$8,$9,$2,$3,0*
0 Add four circle primitives for the rounded corners*
1,1,$1+$1,$2,$3*
1,1,$1+$1,$4,$5*
1,1,$1+$1,$6,$7*
1,1,$1+$1,$8,$9*
0 Add four rect primitives between the rounded corners*
20,1,$1+$1,$2,$3,$4,$5,0*
20,1,$1+$1,$4,$5,$6,$7,0*
20,1,$1+$1,$6,$7,$8,$9,0*
20,1,$1+$1,$8,$9,$2,$3,0*%
G04 Aperture macros list end*
%TA.AperFunction,ComponentPad*%
%ADD10C,2.200000*%
%TD*%
%TA.AperFunction,ComponentPad*%
%ADD11RoundRect,0.250000X-0.550000X0.550000X-0.550000X-0.550000X0.550000X-0.550000X0.550000X0.550000X0*%
%TD*%
%TA.AperFunction,ComponentPad*%
%ADD12C,1.600000*%
%TD*%
%TA.AperFunction,ComponentPad*%
%ADD13R,3.500000X1.700000*%
%TD*%
%TA.AperFunction,ComponentPad*%
%ADD14O,3.600000X1.700000*%
%TD*%
%TA.AperFunction,ComponentPad*%
%ADD15O,3.700000X1.700000*%
%TD*%
%TA.AperFunction,ComponentPad*%
%ADD16C,2.000000*%
%TD*%
%TA.AperFunction,ComponentPad*%
%ADD17R,2.000000X2.000000*%
%TD*%
%TA.AperFunction,ComponentPad*%
%ADD18R,3.200000X2.000000*%
%TD*%
%TA.AperFunction,ComponentPad*%
%ADD19RoundRect,0.170000X-0.680000X0.680000X-0.680000X-0.680000X0.680000X-0.680000X0.680000X0.680000X0*%
%TD*%
%TA.AperFunction,ComponentPad*%
%ADD20C,1.700000*%
%TD*%
%TA.AperFunction,Conductor*%
%ADD21C,0.200000*%
%TD*%
G04 APERTURE END LIST*
D10*
%TO.P,SW10,1,1_1*%
%TO.N,Net-(D2-A)*%
X148160000Y-74880000D03*
%TO.P,SW10,2,2_2*%
%TO.N,Net-(U5-PA4_A1_D1)*%
X141810000Y-77420000D03*
%TD*%
D11*
%TO.P,D7,1,K_1*%
%TO.N,Net-(D7-K)*%
X116380000Y-140600000D03*
D12*
%TO.P,D7,2,A_2*%
%TO.N,Net-(D7-A)*%
X116380000Y-148220000D03*
%TD*%
D11*
%TO.P,D5,1,K_1*%
%TO.N,Net-(D4-K)*%
X155970000Y-109160000D03*
D12*
%TO.P,D5,2,A_2*%
%TO.N,Net-(D5-A)*%
X155970000Y-116780000D03*
%TD*%
D13*
%TO.P,U5,1,PA02_A0_D0_1*%
%TO.N,Net-(U5-PA02_A0_D0)*%
X214700000Y-148540000D03*
D14*
%TO.P,U5,2,PA4_A1_D1_2*%
%TO.N,Net-(U5-PA4_A1_D1)*%
X214700000Y-146000000D03*
%TO.P,U5,3,PA10_A2_D2_3*%
%TO.N,Net-(U5-PA10_A2_D2)*%
X214700000Y-143460000D03*
%TO.P,U5,4,PA11_A3_D3_4*%
%TO.N,Net-(U5-PA11_A3_D3)*%
X214700000Y-140920000D03*
%TO.P,U5,5,PA8_A4_D4_SDA_5*%
%TO.N,Net-(U4-SCL)*%
X214700000Y-138380000D03*
%TO.P,U5,6,PA9_A5_D5_SCL_6*%
X214700000Y-135840000D03*
%TO.P,U5,7,PB08_A6_D6_TX_7*%
%TO.N,Net-(D6-K)*%
X214700000Y-133300000D03*
%TO.P,U5,8,PB09_A7_D7_RX_8*%
%TO.N,Net-(U5-PB09_A7_D7_RX)*%
X197450000Y-133300000D03*
%TO.P,U5,9,PA7_A8_D8_SCK_9*%
%TO.N,Net-(D7-K)*%
X197450000Y-135840000D03*
%TO.P,U5,10,PA5_A9_D9_MISO_10*%
%TO.N,Net-(U5-PA5_A9_D9_MISO)*%
X197450000Y-138380000D03*
D15*
%TO.P,U5,11,PA6_A10_D10_MOSI_11*%
%TO.N,Net-(U5-PA6_A10_D10_MOSI)*%
X197450000Y-140920000D03*
%TO.P,U5,12,3V3_12*%
%TO.N,Net-(U5-3V3)*%
X197450000Y-143460000D03*
%TO.P,U5,13,GND_13*%
%TO.N,Net-(U4-GND)*%
X197450000Y-146000000D03*
%TO.P,U5,14,5V_14*%
%TO.N,Net-(U4-VCC)*%
X197450000Y-148540000D03*
%TD*%
D11*
%TO.P,D6,1,K_1*%
%TO.N,Net-(D6-K)*%
X196800000Y-108490000D03*
D12*
%TO.P,D6,2,A_2*%
%TO.N,Net-(D6-A)*%
X196800000Y-116110000D03*
%TD*%
D10*
%TO.P,SW9,1,1_1*%
%TO.N,Net-(D1-A)*%
X109060000Y-75320000D03*
%TO.P,SW9,2,2_2*%
%TO.N,Net-(U5-PA02_A0_D0)*%
X102710000Y-77860000D03*
%TD*%
D11*
%TO.P,D1,1,K_1*%
%TO.N,Net-(D1-K)*%
X116680000Y-80400000D03*
D12*
%TO.P,D1,2,A_2*%
%TO.N,Net-(D1-A)*%
X116680000Y-88020000D03*
%TD*%
D16*
%TO.P,SW7,1,1_1*%
%TO.N,Net-(U4-GND)*%
X230450000Y-129250000D03*
X230450000Y-135750000D03*
%TO.P,SW7,2,2_2*%
%TO.N,Net-(U5-PA02_A0_D0)*%
X225950000Y-129250000D03*
X225950000Y-135750000D03*
%TD*%
D10*
%TO.P,SW6,1,1_1*%
%TO.N,Net-(D7-A)*%
X108760000Y-135520000D03*
%TO.P,SW6,2,2_2*%
%TO.N,Net-(U5-PA11_A3_D3)*%
X102410000Y-138060000D03*
%TD*%
D11*
%TO.P,D3,1,K_1*%
%TO.N,Net-(D1-K)*%
X196900000Y-79480000D03*
D12*
%TO.P,D3,2,A_2*%
%TO.N,Net-(D3-A)*%
X196900000Y-87100000D03*
%TD*%
D11*
%TO.P,D4,1,K_1*%
%TO.N,Net-(D4-K)*%
X116680000Y-109700000D03*
D12*
%TO.P,D4,2,A_2*%
%TO.N,Net-(D4-A)*%
X116680000Y-117320000D03*
%TD*%
D10*
%TO.P,SW1,1,1_1*%
%TO.N,Net-(D4-A)*%
X109060000Y-104620000D03*
%TO.P,SW1,2,2_2*%
%TO.N,Net-(U5-PA11_A3_D3)*%
X102710000Y-107160000D03*
%TD*%
D16*
%TO.P,SW8,1,1_1*%
%TO.N,Net-(U4-GND)*%
X230050000Y-148150000D03*
X230050000Y-154650000D03*
%TO.P,SW8,2,2_2*%
%TO.N,Net-(U5-PA4_A1_D1)*%
X225550000Y-148150000D03*
X225550000Y-154650000D03*
%TD*%
D10*
%TO.P,SW2,1,1_1*%
%TO.N,Net-(D5-A)*%
X148350000Y-104080000D03*
%TO.P,SW2,2,2_2*%
%TO.N,Net-(U4-SCL)*%
X142000000Y-106620000D03*
%TD*%
D17*
%TO.P,SW4,A,A_A*%
%TO.N,Net-(U5-PA6_A10_D10_MOSI)*%
X215400000Y-108100000D03*
D16*
%TO.P,SW4,B,B_B*%
%TO.N,Net-(D7-K)*%
X215400000Y-113100000D03*
%TO.P,SW4,C,C_C*%
%TO.N,Net-(U4-GND)*%
X215400000Y-110600000D03*
D18*
%TO.P,SW4,MP*%
%TO.N,N/C*%
X222900000Y-105000000D03*
X222900000Y-116200000D03*
D16*
%TO.P,SW4,S1,S1_S1*%
%TO.N,Net-(U5-PA5_A9_D9_MISO)*%
X229900000Y-113100000D03*
%TO.P,SW4,S2,S2_S2*%
%TO.N,Net-(U4-GND)*%
X229900000Y-108100000D03*
%TD*%
D10*
%TO.P,SW5,1,1_1*%
%TO.N,Net-(D6-A)*%
X189360000Y-104120000D03*
%TO.P,SW5,2,2_2*%
%TO.N,Net-(U5-PA10_A2_D2)*%
X183010000Y-106660000D03*
%TD*%
D17*
%TO.P,SW3,A,A_A*%
%TO.N,Net-(D6-K)*%
X215550000Y-77900000D03*
D16*
%TO.P,SW3,B,B_B*%
%TO.N,Net-(U5-PB09_A7_D7_RX)*%
X215550000Y-82900000D03*
%TO.P,SW3,C,C_C*%
%TO.N,Net-(U4-GND)*%
X215550000Y-80400000D03*
D18*
%TO.P,SW3,MP*%
%TO.N,N/C*%
X223050000Y-74800000D03*
X223050000Y-86000000D03*
D16*
%TO.P,SW3,S1,S1_S1*%
%TO.N,Net-(U5-3V3)*%
X230050000Y-82900000D03*
%TO.P,SW3,S2,S2_S2*%
%TO.N,Net-(U4-GND)*%
X230050000Y-77900000D03*
%TD*%
D11*
%TO.P,D2,1,K_1*%
%TO.N,Net-(D1-K)*%
X155780000Y-79960000D03*
D12*
%TO.P,D2,2,A_2*%
%TO.N,Net-(D2-A)*%
X155780000Y-87580000D03*
%TD*%
D10*
%TO.P,SW11,1,1_1*%
%TO.N,Net-(D3-A)*%
X189260000Y-75580000D03*
%TO.P,SW11,2,2_2*%
%TO.N,Net-(U5-PA10_A2_D2)*%
X182910000Y-78120000D03*
%TD*%
D19*
%TO.P,U4,1,GND_1*%
%TO.N,Net-(U4-GND)*%
X171900000Y-137690000D03*
D20*
%TO.P,U4,2,VCC_2*%
%TO.N,Net-(U4-VCC)*%
X171900000Y-140230000D03*
%TO.P,U4,3,SCL_3*%
%TO.N,Net-(U4-SCL)*%
X171900000Y-142770000D03*
%TO.P,U4,4,SDA_4*%
X171900000Y-145310000D03*
%TD*%
%TO.N,Net-(D7-K)*%
D21*
X216700000Y-111800000D02*
X216700000Y-106800000D01*
X214100000Y-106800000D02*
X199550000Y-121350000D01*
X215400000Y-113100000D02*
X216700000Y-111800000D01*
X199550000Y-134740000D02*
X198450000Y-135840000D01*
X199550000Y-121350000D02*
X199550000Y-134740000D01*
X216700000Y-106800000D02*
X214100000Y-106800000D01*
%TO.N,Net-(U5-PA10_A2_D2)*%
X170350000Y-145386346D02*
X174653654Y-149690000D01*
X183010000Y-106660000D02*
X183010000Y-123984924D01*
X170350000Y-136644924D02*
X170350000Y-145386346D01*
X230348478Y-149690000D02*
X231350000Y-148688478D01*
X231350000Y-148688478D02*
X231350000Y-147611522D01*
X231350000Y-147611522D02*
X227198478Y-143460000D01*
X183010000Y-123984924D02*
X170350000Y-136644924D01*
X227198478Y-143460000D02*
X213700000Y-143460000D01*
X174653654Y-149690000D02*
X230348478Y-149690000D01*
%TO.N,Net-(U4-SCL)*%
X204930000Y-144610000D02*
X213700000Y-135840000D01*
X170750000Y-141620000D02*
X170750000Y-136810610D01*
X170750000Y-136810610D02*
X171020610Y-136540000D01*
X171900000Y-142770000D02*
X170750000Y-141620000D01*
X171900000Y-142770000D02*
X171900000Y-145310000D01*
X195973654Y-144610000D02*
X204930000Y-144610000D01*
X213700000Y-135840000D02*
X213700000Y-138380000D01*
X171020610Y-136540000D02*
X187903654Y-136540000D01*
X187903654Y-136540000D02*
X195973654Y-144610000D01*
%TO.N,Net-(U5-PB09_A7_D7_RX)*%
X198450000Y-100000000D02*
X215550000Y-82900000D01*
X198450000Y-133300000D02*
X198450000Y-100000000D01*
%TO.N,Net-(U5-PA5_A9_D9_MISO)*%
X195300000Y-140443654D02*
X195300000Y-141396346D01*
X198450000Y-138380000D02*
X197363654Y-138380000D01*
X195300000Y-141396346D02*
X195973654Y-142070000D01*
X199274314Y-142070000D02*
X219544314Y-121800000D01*
X228750000Y-82361522D02*
X229511522Y-81600000D01*
X219544314Y-121800000D02*
X219544314Y-92644164D01*
X195973654Y-142070000D02*
X199274314Y-142070000D01*
X219544314Y-92644164D02*
X228750000Y-83438478D01*
X229511522Y-81600000D02*
X230588478Y-81600000D01*
X228750000Y-83438478D02*
X228750000Y-82361522D01*
X230588478Y-81600000D02*
X231350000Y-82361522D01*
X197363654Y-138380000D02*
X195300000Y-140443654D01*
X231350000Y-82361522D02*
X231350000Y-111650000D01*
X231350000Y-111650000D02*
X229900000Y-113100000D01*
%TO.N,Net-(U5-PA6_A10_D10_MOSI)*%
X215400000Y-108100000D02*
X214100000Y-109400000D01*
X214100000Y-125270000D02*
X198450000Y-140920000D01*
X214100000Y-109400000D02*
X214100000Y-125270000D01*
%TO.N,Net-(U5-3V3)*%
X230050000Y-82900000D02*
X221000000Y-91950000D01*
X221000000Y-91950000D02*
X221000000Y-120910000D01*
X221000000Y-120910000D02*
X198450000Y-143460000D01*
%TO.N,Net-(U4-GND)*%
X199650000Y-147200000D02*
X224661522Y-147200000D01*
X228750000Y-146850000D02*
X230050000Y-148150000D01*
X225011522Y-146850000D02*
X228750000Y-146850000D01*
X224661522Y-147200000D02*
X225011522Y-146850000D01*
X198450000Y-146000000D02*
X199650000Y-147200000D01*
X180210000Y-146000000D02*
X198450000Y-146000000D01*
X171900000Y-137690000D02*
X180210000Y-146000000D01*
%TO.N,Net-(U4-VCC)*%
X180210000Y-148540000D02*
X198450000Y-148540000D01*
X171900000Y-140230000D02*
X180210000Y-148540000D01*
%TD*%
M02*
