%TF.GenerationSoftware,KiCad,Pcbnew,10.0.6*%
%TF.CreationDate,2026-09-20T19:14:55+05:30*%
%TF.ProjectId,PCB,5043422e-6b69-4636-9164-5f7063625858,rev?*%
%TF.SameCoordinates,Original*%
%TF.FileFunction,Copper,L1,Top*%
%TF.FilePolarity,Positive*%
%FSLAX46Y46*%
G04 Gerber Fmt 4.6, Leading zero omitted, Abs format (unit mm)*
G04 Created by KiCad (PCBNEW 10.0.6) date 2026-09-20 19:14:55*
%MOMM*%
%LPD*%
G01*
G04 APERTURE LIST*
G04 Aperture macros list*
%AMRoundRect*
0 Rectangle with rounded corners*
0 $1 Rounding radius*
0 $2 $3 $4 $5 $6 $7 $8 $9 X,Y pos of 4 corners*
0 Add a 4 corners polygon primitive as box body*
4,1,4,$2,$3,$4,$5,$6,$7,$8,$9,$2,$3,0*
0 Add four circle primitives for the rounded corners*
1,1,$1+$1,$2,$3*
1,1,$1+$1,$4,$5*
1,1,$1+$1,$6,$7*
1,1,$1+$1,$8,$9*
0 Add four rect primitives between the rounded corners*
20,1,$1+$1,$2,$3,$4,$5,0*
20,1,$1+$1,$4,$5,$6,$7,0*
20,1,$1+$1,$6,$7,$8,$9,0*
20,1,$1+$1,$8,$9,$2,$3,0*%
G04 Aperture macros list end*
%TA.AperFunction,NonConductor*%
%ADD10C,0.200000*%
%TD*%
%TA.AperFunction,ComponentPad*%
%ADD11C,2.200000*%
%TD*%
%TA.AperFunction,ComponentPad*%
%ADD12RoundRect,0.250000X-0.550000X0.550000X-0.550000X-0.550000X0.550000X-0.550000X0.550000X0.550000X0*%
%TD*%
%TA.AperFunction,ComponentPad*%
%ADD13C,1.600000*%
%TD*%
%TA.AperFunction,ComponentPad*%
%ADD14R,3.500000X1.700000*%
%TD*%
%TA.AperFunction,ComponentPad*%
%ADD15O,3.600000X1.700000*%
%TD*%
%TA.AperFunction,ComponentPad*%
%ADD16O,3.700000X1.700000*%
%TD*%
%TA.AperFunction,ComponentPad*%
%ADD17C,2.000000*%
%TD*%
%TA.AperFunction,ComponentPad*%
%ADD18R,2.000000X2.000000*%
%TD*%
%TA.AperFunction,ComponentPad*%
%ADD19R,3.200000X2.000000*%
%TD*%
%TA.AperFunction,ComponentPad*%
%ADD20RoundRect,0.170000X-0.680000X0.680000X-0.680000X-0.680000X0.680000X-0.680000X0.680000X0.680000X0*%
%TD*%
%TA.AperFunction,ComponentPad*%
%ADD21C,1.700000*%
%TD*%
%TA.AperFunction,Conductor*%
%ADD22C,0.200000*%
%TD*%
G04 APERTURE END LIST*
D10*
X92000000Y-55700000D02*
X237900000Y-55700000D01*
X237900000Y-164500000D01*
X92000000Y-164500000D01*
X92000000Y-55700000D01*
D11*
%TO.P,SW10,1,1_1*%
%TO.N,Net-(D2-A)*%
X148160000Y-74880000D03*
%TO.P,SW10,2,2_2*%
%TO.N,Net-(U5-PA4_A1_D1)*%
X141810000Y-77420000D03*
%TD*%
D12*
%TO.P,D7,1,K_1*%
%TO.N,Net-(D7-K)*%
X116380000Y-140600000D03*
D13*
%TO.P,D7,2,A_2*%
%TO.N,Net-(D7-A)*%
X116380000Y-148220000D03*
%TD*%
D12*
%TO.P,D5,1,K_1*%
%TO.N,Net-(D4-K)*%
X155970000Y-109160000D03*
D13*
%TO.P,D5,2,A_2*%
%TO.N,Net-(D5-A)*%
X155970000Y-116780000D03*
%TD*%
D14*
%TO.P,U5,1,PA02_A0_D0_1*%
%TO.N,Net-(U5-PA02_A0_D0)*%
X214700000Y-148540000D03*
D15*
%TO.P,U5,2,PA4_A1_D1_2*%
%TO.N,Net-(U5-PA4_A1_D1)*%
X214700000Y-146000000D03*
%TO.P,U5,3,PA10_A2_D2_3*%
%TO.N,Net-(U5-PA10_A2_D2)*%
X214700000Y-143460000D03*
%TO.P,U5,4,PA11_A3_D3_4*%
%TO.N,Net-(U5-PA11_A3_D3)*%
X214700000Y-140920000D03*
%TO.P,U5,5,PA8_A4_D4_SDA_5*%
%TO.N,Net-(U4-SCL)*%
X214700000Y-138380000D03*
%TO.P,U5,6,PA9_A5_D5_SCL_6*%
X214700000Y-135840000D03*
%TO.P,U5,7,PB08_A6_D6_TX_7*%
%TO.N,Net-(D6-K)*%
X214700000Y-133300000D03*
%TO.P,U5,8,PB09_A7_D7_RX_8*%
%TO.N,Net-(U5-PB09_A7_D7_RX)*%
X197450000Y-133300000D03*
%TO.P,U5,9,PA7_A8_D8_SCK_9*%
%TO.N,Net-(D7-K)*%
X197450000Y-135840000D03*
%TO.P,U5,10,PA5_A9_D9_MISO_10*%
%TO.N,Net-(U5-PA5_A9_D9_MISO)*%
X197450000Y-138380000D03*
D16*
%TO.P,U5,11,PA6_A10_D10_MOSI_11*%
%TO.N,Net-(U5-PA6_A10_D10_MOSI)*%
X197450000Y-140920000D03*
%TO.P,U5,12,3V3_12*%
%TO.N,Net-(U5-3V3)*%
X197450000Y-143460000D03*
%TO.P,U5,13,GND_13*%
%TO.N,Net-(U4-GND)*%
X197450000Y-146000000D03*
%TO.P,U5,14,5V_14*%
%TO.N,Net-(U4-VCC)*%
X197450000Y-148540000D03*
%TD*%
D12*
%TO.P,D6,1,K_1*%
%TO.N,Net-(D6-K)*%
X196800000Y-108490000D03*
D13*
%TO.P,D6,2,A_2*%
%TO.N,Net-(D6-A)*%
X196800000Y-116110000D03*
%TD*%
D11*
%TO.P,SW9,1,1_1*%
%TO.N,Net-(D1-A)*%
X109060000Y-75320000D03*
%TO.P,SW9,2,2_2*%
%TO.N,Net-(U5-PA02_A0_D0)*%
X102710000Y-77860000D03*
%TD*%
D12*
%TO.P,D1,1,K_1*%
%TO.N,Net-(D1-K)*%
X116680000Y-80400000D03*
D13*
%TO.P,D1,2,A_2*%
%TO.N,Net-(D1-A)*%
X116680000Y-88020000D03*
%TD*%
D17*
%TO.P,SW7,1,1_1*%
%TO.N,Net-(U4-GND)*%
X230450000Y-129250000D03*
X230450000Y-135750000D03*
%TO.P,SW7,2,2_2*%
%TO.N,Net-(U5-PA02_A0_D0)*%
X225950000Y-129250000D03*
X225950000Y-135750000D03*
%TD*%
D11*
%TO.P,SW6,1,1_1*%
%TO.N,Net-(D7-A)*%
X108760000Y-135520000D03*
%TO.P,SW6,2,2_2*%
%TO.N,Net-(U5-PA11_A3_D3)*%
X102410000Y-138060000D03*
%TD*%
D12*
%TO.P,D3,1,K_1*%
%TO.N,Net-(D1-K)*%
X196900000Y-79480000D03*
D13*
%TO.P,D3,2,A_2*%
%TO.N,Net-(D3-A)*%
X196900000Y-87100000D03*
%TD*%
D12*
%TO.P,D4,1,K_1*%
%TO.N,Net-(D4-K)*%
X116680000Y-109700000D03*
D13*
%TO.P,D4,2,A_2*%
%TO.N,Net-(D4-A)*%
X116680000Y-117320000D03*
%TD*%
D11*
%TO.P,SW1,1,1_1*%
%TO.N,Net-(D4-A)*%
X109060000Y-104620000D03*
%TO.P,SW1,2,2_2*%
%TO.N,Net-(U5-PA11_A3_D3)*%
X102710000Y-107160000D03*
%TD*%
D17*
%TO.P,SW8,1,1_1*%
%TO.N,Net-(U4-GND)*%
X230050000Y-148150000D03*
X230050000Y-154650000D03*
%TO.P,SW8,2,2_2*%
%TO.N,Net-(U5-PA4_A1_D1)*%
X225550000Y-148150000D03*
X225550000Y-154650000D03*
%TD*%
D11*
%TO.P,SW2,1,1_1*%
%TO.N,Net-(D5-A)*%
X148350000Y-104080000D03*
%TO.P,SW2,2,2_2*%
%TO.N,Net-(U4-SCL)*%
X142000000Y-106620000D03*
%TD*%
D18*
%TO.P,SW4,A,A_A*%
%TO.N,Net-(U5-PA6_A10_D10_MOSI)*%
X215400000Y-108100000D03*
D17*
%TO.P,SW4,B,B_B*%
%TO.N,Net-(D7-K)*%
X215400000Y-113100000D03*
%TO.P,SW4,C,C_C*%
%TO.N,Net-(U4-GND)*%
X215400000Y-110600000D03*
D19*
%TO.P,SW4,MP*%
%TO.N,N/C*%
X222900000Y-105000000D03*
X222900000Y-116200000D03*
D17*
%TO.P,SW4,S1,S1_S1*%
%TO.N,Net-(U5-PA5_A9_D9_MISO)*%
X229900000Y-113100000D03*
%TO.P,SW4,S2,S2_S2*%
%TO.N,Net-(U4-GND)*%
X229900000Y-108100000D03*
%TD*%
D11*
%TO.P,SW5,1,1_1*%
%TO.N,Net-(D6-A)*%
X189360000Y-104120000D03*
%TO.P,SW5,2,2_2*%
%TO.N,Net-(U5-PA10_A2_D2)*%
X183010000Y-106660000D03*
%TD*%
D18*
%TO.P,SW3,A,A_A*%
%TO.N,Net-(D6-K)*%
X215550000Y-77900000D03*
D17*
%TO.P,SW3,B,B_B*%
%TO.N,Net-(U5-PB09_A7_D7_RX)*%
X215550000Y-82900000D03*
%TO.P,SW3,C,C_C*%
%TO.N,Net-(U4-GND)*%
X215550000Y-80400000D03*
D19*
%TO.P,SW3,MP*%
%TO.N,N/C*%
X223050000Y-74800000D03*
X223050000Y-86000000D03*
D17*
%TO.P,SW3,S1,S1_S1*%
%TO.N,Net-(U5-3V3)*%
X230050000Y-82900000D03*
%TO.P,SW3,S2,S2_S2*%
%TO.N,Net-(U4-GND)*%
X230050000Y-77900000D03*
%TD*%
D12*
%TO.P,D2,1,K_1*%
%TO.N,Net-(D1-K)*%
X155780000Y-79960000D03*
D13*
%TO.P,D2,2,A_2*%
%TO.N,Net-(D2-A)*%
X155780000Y-87580000D03*
%TD*%
D11*
%TO.P,SW11,1,1_1*%
%TO.N,Net-(D3-A)*%
X189260000Y-75580000D03*
%TO.P,SW11,2,2_2*%
%TO.N,Net-(U5-PA10_A2_D2)*%
X182910000Y-78120000D03*
%TD*%
D20*
%TO.P,U4,1,GND_1*%
%TO.N,Net-(U4-GND)*%
X171900000Y-137690000D03*
D21*
%TO.P,U4,2,VCC_2*%
%TO.N,Net-(U4-VCC)*%
X171900000Y-140230000D03*
%TO.P,U4,3,SCL_3*%
%TO.N,Net-(U4-SCL)*%
X171900000Y-142770000D03*
%TO.P,U4,4,SDA_4*%
X171900000Y-145310000D03*
%TD*%
%TO.N,Net-(D2-A)*%
D22*
X148160000Y-74880000D02*
X155780000Y-82500000D01*
X155780000Y-82500000D02*
X155780000Y-87580000D01*
%TO.N,Net-(U5-PA4_A1_D1)*%
X214736346Y-146000000D02*
X213700000Y-146000000D01*
X223400000Y-146000000D02*
X213700000Y-146000000D01*
X225550000Y-148650000D02*
X225800000Y-148900000D01*
X216126346Y-134690000D02*
X216800000Y-135363654D01*
X216800000Y-140443654D02*
X216800000Y-143936346D01*
X216800000Y-135363654D02*
X216800000Y-139096346D01*
X216126346Y-139770000D02*
X216800000Y-140443654D01*
X196023654Y-134690000D02*
X216126346Y-134690000D01*
X225550000Y-154650000D02*
X225550000Y-148150000D01*
X141810000Y-77420000D02*
X141810000Y-80476346D01*
X216800000Y-143936346D02*
X214736346Y-146000000D01*
X141810000Y-80476346D02*
X196023654Y-134690000D01*
X225550000Y-148150000D02*
X225550000Y-148650000D01*
X216800000Y-139096346D02*
X216126346Y-139770000D01*
X225550000Y-148150000D02*
X223400000Y-146000000D01*
%TO.N,Net-(D7-K)*%
X116380000Y-140600000D02*
X121140000Y-135840000D01*
X121140000Y-135840000D02*
X198450000Y-135840000D01*
%TO.N,Net-(D7-A)*%
X108760000Y-140600000D02*
X116380000Y-148220000D01*
X108760000Y-135520000D02*
X108760000Y-140600000D01*
%TO.N,Net-(D4-K)*%
X155970000Y-109160000D02*
X149490000Y-102680000D01*
X135000000Y-109700000D02*
X116680000Y-109700000D01*
X149490000Y-102680000D02*
X142020000Y-102680000D01*
X142020000Y-102680000D02*
X135000000Y-109700000D01*
%TO.N,Net-(D5-A)*%
X155970000Y-111700000D02*
X148350000Y-104080000D01*
X155970000Y-116780000D02*
X155970000Y-111700000D01*
%TO.N,Net-(U5-PA02_A0_D0)*%
X225950000Y-135750000D02*
X226950000Y-136750000D01*
X226950000Y-155088478D02*
X226088478Y-155950000D01*
X226950000Y-136750000D02*
X226950000Y-155088478D01*
X226088478Y-155950000D02*
X221110000Y-155950000D01*
X102710000Y-104614416D02*
X99540000Y-107784416D01*
X99540000Y-140697056D02*
X108562944Y-149720000D01*
X212520000Y-149720000D02*
X213700000Y-148540000D01*
X108562944Y-149720000D02*
X212520000Y-149720000D01*
X102710000Y-77860000D02*
X102710000Y-104614416D01*
X99540000Y-107784416D02*
X99540000Y-140697056D01*
X221110000Y-155950000D02*
X213700000Y-148540000D01*
X225950000Y-135750000D02*
X225950000Y-129250000D01*
%TO.N,Net-(U5-PA10_A2_D2)*%
X182910000Y-106560000D02*
X183010000Y-106660000D01*
X182910000Y-78120000D02*
X182910000Y-106560000D01*
%TO.N,Net-(U5-PA11_A3_D3)*%
X195973654Y-142070000D02*
X212550000Y-142070000D01*
X171103654Y-141700000D02*
X171407308Y-141396346D01*
X171407308Y-141396346D02*
X195300000Y-141396346D01*
X102710000Y-107160000D02*
X102710000Y-137760000D01*
X111120000Y-134120000D02*
X111120000Y-137224744D01*
X212550000Y-142070000D02*
X213700000Y-140920000D01*
X115595256Y-141700000D02*
X171103654Y-141700000D01*
X106350000Y-134120000D02*
X111120000Y-134120000D01*
X195300000Y-141396346D02*
X195973654Y-142070000D01*
X102710000Y-137760000D02*
X102410000Y-138060000D01*
X111120000Y-137224744D02*
X115595256Y-141700000D01*
X102410000Y-138060000D02*
X106350000Y-134120000D01*
%TO.N,Net-(U4-SCL)*%
X125500000Y-149000000D02*
X165670000Y-149000000D01*
X140700000Y-106620000D02*
X114820000Y-132500000D01*
X111557056Y-149320000D02*
X125180000Y-149320000D01*
X114820000Y-132500000D02*
X104110000Y-121790000D01*
X142000000Y-106620000D02*
X140700000Y-106620000D01*
X102130101Y-105760000D02*
X99940000Y-107950101D01*
X103289899Y-105760000D02*
X102130101Y-105760000D01*
X104110000Y-106580101D02*
X103289899Y-105760000D01*
X165670000Y-149000000D02*
X171900000Y-142770000D01*
X125180000Y-149320000D02*
X125500000Y-149000000D01*
X99940000Y-137702944D02*
X111557056Y-149320000D01*
X104110000Y-121790000D02*
X104110000Y-106580101D01*
X99940000Y-107950101D02*
X99940000Y-137702944D01*
%TO.N,Net-(D6-K)*%
X213700000Y-125390000D02*
X213700000Y-133300000D01*
X196800000Y-108490000D02*
X213700000Y-125390000D01*
X196800000Y-108490000D02*
X196800000Y-96650000D01*
X196800000Y-96650000D02*
X215550000Y-77900000D01*
%TO.N,Net-(U4-GND)*%
X231350000Y-79200000D02*
X230050000Y-77900000D01*
X171900000Y-137690000D02*
X172290000Y-137690000D01*
X227300000Y-110600000D02*
X215400000Y-110600000D01*
X231200000Y-128500000D02*
X230450000Y-129250000D01*
X230300000Y-108200000D02*
X230200000Y-108100000D01*
X230050000Y-77900000D02*
X227550000Y-80400000D01*
X230450000Y-129250000D02*
X230450000Y-135750000D01*
X172290000Y-137690000D02*
X172600000Y-138000000D01*
X229400000Y-110600000D02*
X231200000Y-112400000D01*
X230050000Y-148150000D02*
X230050000Y-154650000D01*
X231350000Y-146850000D02*
X231350000Y-79200000D01*
X230200000Y-108100000D02*
X229900000Y-108100000D01*
X227300000Y-110600000D02*
X229400000Y-110600000D01*
X230450000Y-129250000D02*
X230100000Y-129600000D01*
X231200000Y-112400000D02*
X231200000Y-128500000D01*
X229900000Y-108100000D02*
X227400000Y-110600000D01*
X227550000Y-80400000D02*
X215550000Y-80400000D01*
X227400000Y-110600000D02*
X227300000Y-110600000D01*
X230050000Y-148150000D02*
X231350000Y-146850000D01*
%TO.N,Net-(D6-A)*%
X194610000Y-116110000D02*
X196800000Y-116110000D01*
X189360000Y-110860000D02*
X194610000Y-116110000D01*
X189360000Y-104120000D02*
X189360000Y-110860000D01*
%TO.N,Net-(D1-A)*%
X116680000Y-88020000D02*
X109060000Y-80400000D01*
X109060000Y-80400000D02*
X109060000Y-75320000D01*
%TO.N,Net-(D1-K)*%
X124780000Y-72300000D02*
X157400000Y-72300000D01*
X155780000Y-74020000D02*
X155780000Y-79960000D01*
X157400000Y-72300000D02*
X189720000Y-72300000D01*
X157400000Y-72400000D02*
X155780000Y-74020000D01*
X116680000Y-80400000D02*
X124780000Y-72300000D01*
X157400000Y-72300000D02*
X157400000Y-72400000D01*
X189720000Y-72300000D02*
X196900000Y-79480000D01*
%TO.N,Net-(D3-A)*%
X196900000Y-83220000D02*
X189260000Y-75580000D01*
X196900000Y-87100000D02*
X196900000Y-83220000D01*
%TO.N,Net-(D4-A)*%
X109060000Y-109700000D02*
X116680000Y-117320000D01*
X109060000Y-104620000D02*
X109060000Y-109700000D01*
%TD*%
M02*
