M48
; DRILL file KiCad 10.0.6 date 2026-09-20T19:01:19
; FORMAT={-:-/ absolute / metric / decimal}
; #@! TF.CreationDate,2026-09-20T19:01:19+05:30
; #@! TF.GenerationSoftware,Kicad,Pcbnew,10.0.6
; #@! TF.FileFunction,NonPlated,1,2,NPTH
FMAT,2
METRIC
; #@! TA.AperFunction,NonPlated,NPTH,ComponentDrill
T1C1.700
; #@! TA.AperFunction,NonPlated,NPTH,ComponentDrill
T2C4.000
%
G90
G05
T1
X101.14Y-140.6
X101.44Y-80.4
X101.44Y-109.7
X111.3Y-140.6
X111.6Y-80.4
X111.6Y-109.7
X140.54Y-79.96
X140.73Y-109.16
X150.7Y-79.96
X150.89Y-109.16
X181.64Y-80.66
X181.74Y-109.2
X191.8Y-80.66
X191.9Y-109.2
T2
X106.22Y-140.6
X106.52Y-80.4
X106.52Y-109.7
X145.62Y-79.96
X145.81Y-109.16
X186.72Y-80.66
X186.82Y-109.2
M30
